<svg width="35" height="32" viewBox="0 0 35 32" fill="none" xmlns="http://www.w3.org/2000/svg">
<rect x="0.418945" width="34.312" height="32" rx="16" fill="#3A3A3A"/>
<path fill-rule="evenodd" clip-rule="evenodd" d="M15.2774 11V9.5H19.8728V11H15.2774ZM13.7456 11V9C13.7456 8.73478 13.8532 8.48043 14.0447 8.29289C14.2362 8.10536 14.496 8 14.7668 8H20.3834C20.6542 8 20.9139 8.10536 21.1055 8.29289C21.297 8.48043 21.4046 8.73478 21.4046 9V11H23.9575C24.1607 11 24.3555 11.079 24.4991 11.2197C24.6427 11.3603 24.7234 11.5511 24.7234 11.75C24.7234 11.9489 24.6427 12.1397 24.4991 12.2803C24.3555 12.421 24.1607 12.5 23.9575 12.5H23.5848L22.826 22.153C22.7867 22.6554 22.5551 23.1248 22.1775 23.4673C21.8 23.8097 21.3044 24 20.7898 24H14.3604C13.8458 24 13.3502 23.8097 12.9726 23.4673C12.5951 23.1248 12.3635 22.6554 12.3241 22.153L11.5654 12.5H11.1927C10.9895 12.5 10.7947 12.421 10.6511 12.2803C10.5074 12.1397 10.4268 11.9489 10.4268 11.75C10.4268 11.5511 10.5074 11.3603 10.6511 11.2197C10.7947 11.079 10.9895 11 11.1927 11H13.7456ZM13.1023 12.5H22.0479L21.2983 22.038C21.2886 22.1636 21.2308 22.2809 21.1365 22.3666C21.0422 22.4522 20.9184 22.4999 20.7898 22.5H14.3604C14.2318 22.4999 14.108 22.4522 14.0137 22.3666C13.9194 22.2809 13.8616 22.1636 13.8518 22.038L13.1023 12.5Z" fill="#F1F7FF"/>
</svg>
