<svg width="110" height="130" viewBox="0 0 110 130" fill="none" xmlns="http://www.w3.org/2000/svg">
<g filter="url(#filter0_d_5199_8226)">
<path d="M40 65C40 78.8071 51.1929 90 65 90H90V65C90 51.1929 78.8071 40 65 40C51.1929 40 40 51.1929 40 65Z" fill="#ABF85E"/>
</g>
<path d="M64.957 55C58.9152 55 54 59.2053 54 64.375C54 66.5588 54.8913 68.6749 56.5133 70.3522C56.8343 71.6357 56.4447 72.9956 55.4779 73.9331C55.0736 74.3251 55.3595 75 55.9336 75C57.7703 75 59.5408 74.3024 60.8563 73.0719C62.158 73.5223 63.5352 73.75 64.957 73.75C70.9989 73.75 76 69.5447 76 64.375C76 59.2053 70.9989 55 64.957 55ZM59.8867 66.25C58.8205 66.25 57.9531 65.4089 57.9531 64.375C57.9531 63.3411 58.8205 62.5 59.8867 62.5C60.9529 62.5 61.8203 63.3411 61.8203 64.375C61.8203 65.4089 60.9529 66.25 59.8867 66.25ZM65.043 66.25C63.9767 66.25 63.1094 65.4089 63.1094 64.375C63.1094 63.3411 63.9767 62.5 65.043 62.5C66.1092 62.5 66.9766 63.3411 66.9766 64.375C66.9766 65.4089 66.1092 66.25 65.043 66.25ZM70.1992 66.25C69.133 66.25 68.2656 65.4089 68.2656 64.375C68.2656 63.3411 69.133 62.5 70.1992 62.5C71.2654 62.5 72.1328 63.3411 72.1328 64.375C72.1328 65.4089 71.2654 66.25 70.1992 66.25Z" fill="black"/>
<defs>
<filter id="filter0_d_5199_8226" x="0" y="0" width="130" height="130" filterUnits="userSpaceOnUse" color-interpolation-filters="sRGB">
<feFlood flood-opacity="0" result="BackgroundImageFix"/>
<feColorMatrix in="SourceAlpha" type="matrix" values="0 0 0 0 0 0 0 0 0 0 0 0 0 0 0 0 0 0 127 0" result="hardAlpha"/>
<feMorphology radius="10" operator="dilate" in="SourceAlpha" result="effect1_dropShadow_5199_8226"/>
<feOffset/>
<feGaussianBlur stdDeviation="15"/>
<feComposite in2="hardAlpha" operator="out"/>
<feColorMatrix type="matrix" values="0 0 0 0 0.419608 0 0 0 0 0.113725 0 0 0 0 0.992157 0 0 0 0.6 0"/>
<feBlend mode="normal" in2="BackgroundImageFix" result="effect1_dropShadow_5199_8226"/>
<feBlend mode="normal" in="SourceGraphic" in2="effect1_dropShadow_5199_8226" result="shape"/>
</filter>
</defs>
</svg>
