<svg width="66" height="10" viewBox="0 0 66 10" fill="none" xmlns="http://www.w3.org/2000/svg">
<path d="M4.46355 0.347861L3.24299 2.93348L0.512158 3.34944C0.0224388 3.42365 -0.173823 4.05443 0.181317 4.41572L2.15701 6.42719L1.68973 9.26863C1.60561 9.78224 2.12337 10.167 2.55701 9.92675L5 8.58512L7.44299 9.92675C7.87663 10.165 8.39439 9.78224 8.31028 9.26863L7.84299 6.42719L9.81868 4.41572C10.1738 4.05443 9.97756 3.42365 9.48784 3.34944L6.75701 2.93348L5.53645 0.347861C5.31776 -0.11302 4.68411 -0.118878 4.46355 0.347861Z" fill="#FFAD33"/>
<path d="M18.4636 0.347861L17.243 2.93348L14.5122 3.34944C14.0224 3.42365 13.8262 4.05443 14.1813 4.41572L16.157 6.42719L15.6897 9.26863C15.6056 9.78224 16.1234 10.167 16.557 9.92675L19 8.58512L21.443 9.92675C21.8766 10.165 22.3944 9.78224 22.3103 9.26863L21.843 6.42719L23.8187 4.41572C24.1738 4.05443 23.9776 3.42365 23.4878 3.34944L20.757 2.93348L19.5364 0.347861C19.3178 -0.11302 18.6841 -0.118878 18.4636 0.347861Z" fill="#FFAD33"/>
<path d="M32.4636 0.347861L31.243 2.93348L28.5122 3.34944C28.0224 3.42365 27.8262 4.05443 28.1813 4.41572L30.157 6.42719L29.6897 9.26863C29.6056 9.78224 30.1234 10.167 30.557 9.92675L33 8.58512L35.443 9.92675C35.8766 10.165 36.3944 9.78224 36.3103 9.26863L35.843 6.42719L37.8187 4.41572C38.1738 4.05443 37.9776 3.42365 37.4878 3.34944L34.757 2.93348L33.5364 0.347861C33.3178 -0.11302 32.6841 -0.118878 32.4636 0.347861Z" fill="#FFAD33"/>
<path d="M46.4636 0.347861L45.243 2.93348L42.5122 3.34944C42.0224 3.42365 41.8262 4.05443 42.1813 4.41572L44.157 6.42719L43.6897 9.26863C43.6056 9.78224 44.1234 10.167 44.557 9.92675L47 8.58512L49.443 9.92675C49.8766 10.165 50.3944 9.78224 50.3103 9.26863L49.843 6.42719L51.8187 4.41572C52.1738 4.05443 51.9776 3.42365 51.4878 3.34944L48.757 2.93348L47.5364 0.347861C47.3178 -0.11302 46.6841 -0.118878 46.4636 0.347861Z" fill="#FFAD33"/>
<path d="M60.4636 0.347861L59.243 2.93348L56.5122 3.34944C56.0224 3.42365 55.8262 4.05443 56.1813 4.41572L58.157 6.42719L57.6897 9.26863C57.6056 9.78224 58.1234 10.167 58.557 9.92675L61 8.58512L63.443 9.92675C63.8766 10.165 64.3944 9.78224 64.3103 9.26863L63.843 6.42719L65.8187 4.41572C66.1738 4.05443 65.9776 3.42365 65.4878 3.34944L62.757 2.93348L61.5364 0.347861C61.3178 -0.11302 60.6841 -0.118878 60.4636 0.347861Z" fill="#FFAD33"/>
</svg>
