<svg width="77" height="50" viewBox="0 0 77 50" fill="none" xmlns="http://www.w3.org/2000/svg">
<g opacity="0.3">
<circle cx="1" cy="1" r="1" fill="#1379FF"/>
<circle cx="8" cy="1" r="1" fill="#1379FF"/>
<circle cx="15" cy="1" r="1" fill="#1379FF"/>
<circle cx="21" cy="1" r="1" fill="#1379FF"/>
<circle cx="28" cy="1" r="1" fill="#1379FF"/>
<circle cx="35" cy="1" r="1" fill="#1379FF"/>
<circle cx="42" cy="1" r="1" fill="#1379FF"/>
<circle cx="49" cy="1" r="1" fill="#1379FF"/>
<circle cx="55" cy="1" r="1" fill="#1379FF"/>
<circle cx="62" cy="1" r="1" fill="#1379FF"/>
<circle cx="69" cy="1" r="1" fill="#1379FF"/>
<circle cx="76" cy="1" r="1" fill="#1379FF"/>
<circle cx="1" cy="8" r="1" fill="#1379FF"/>
<circle cx="8" cy="8" r="1" fill="#1379FF"/>
<circle cx="15" cy="8" r="1" fill="#1379FF"/>
<circle cx="21" cy="8" r="1" fill="#1379FF"/>
<circle cx="28" cy="8" r="1" fill="#1379FF"/>
<circle cx="35" cy="8" r="1" fill="#1379FF"/>
<circle cx="42" cy="8" r="1" fill="#1379FF"/>
<circle cx="49" cy="8" r="1" fill="#1379FF"/>
<circle cx="55" cy="8" r="1" fill="#1379FF"/>
<circle cx="62" cy="8" r="1" fill="#1379FF"/>
<circle cx="69" cy="8" r="1" fill="#1379FF"/>
<circle cx="76" cy="8" r="1" fill="#1379FF"/>
<circle cx="1" cy="15" r="1" fill="#1379FF"/>
<circle cx="8" cy="15" r="1" fill="#1379FF"/>
<circle cx="15" cy="15" r="1" fill="#1379FF"/>
<circle cx="21" cy="15" r="1" fill="#1379FF"/>
<circle cx="28" cy="15" r="1" fill="#1379FF"/>
<circle cx="35" cy="15" r="1" fill="#1379FF"/>
<circle cx="42" cy="15" r="1" fill="#1379FF"/>
<circle cx="49" cy="15" r="1" fill="#1379FF"/>
<circle cx="55" cy="15" r="1" fill="#1379FF"/>
<circle cx="62" cy="15" r="1" fill="#1379FF"/>
<circle cx="69" cy="15" r="1" fill="#1379FF"/>
<circle cx="76" cy="15" r="1" fill="#1379FF"/>
<circle cx="1" cy="21" r="1" fill="#1379FF"/>
<circle cx="8" cy="21" r="1" fill="#1379FF"/>
<circle cx="15" cy="21" r="1" fill="#1379FF"/>
<circle cx="21" cy="21" r="1" fill="#1379FF"/>
<circle cx="28" cy="21" r="1" fill="#1379FF"/>
<circle cx="35" cy="21" r="1" fill="#1379FF"/>
<circle cx="42" cy="21" r="1" fill="#1379FF"/>
<circle cx="49" cy="21" r="1" fill="#1379FF"/>
<circle cx="55" cy="21" r="1" fill="#1379FF"/>
<circle cx="62" cy="21" r="1" fill="#1379FF"/>
<circle cx="69" cy="21" r="1" fill="#1379FF"/>
<circle cx="76" cy="21" r="1" fill="#1379FF"/>
<circle cx="1" cy="28" r="1" fill="#1379FF"/>
<circle cx="8" cy="28" r="1" fill="#1379FF"/>
<circle cx="15" cy="28" r="1" fill="#1379FF"/>
<circle cx="21" cy="28" r="1" fill="#1379FF"/>
<circle cx="28" cy="28" r="1" fill="#1379FF"/>
<circle cx="35" cy="28" r="1" fill="#1379FF"/>
<circle cx="42" cy="28" r="1" fill="#1379FF"/>
<circle cx="49" cy="28" r="1" fill="#1379FF"/>
<circle cx="55" cy="28" r="1" fill="#1379FF"/>
<circle cx="62" cy="28" r="1" fill="#1379FF"/>
<circle cx="69" cy="28" r="1" fill="#1379FF"/>
<circle cx="76" cy="28" r="1" fill="#1379FF"/>
<circle cx="1" cy="35" r="1" fill="#1379FF"/>
<circle cx="8" cy="35" r="1" fill="#1379FF"/>
<circle cx="15" cy="35" r="1" fill="#1379FF"/>
<circle cx="21" cy="35" r="1" fill="#1379FF"/>
<circle cx="28" cy="35" r="1" fill="#1379FF"/>
<circle cx="35" cy="35" r="1" fill="#1379FF"/>
<circle cx="42" cy="35" r="1" fill="#1379FF"/>
<circle cx="49" cy="35" r="1" fill="#1379FF"/>
<circle cx="55" cy="35" r="1" fill="#1379FF"/>
<circle cx="62" cy="35" r="1" fill="#1379FF"/>
<circle cx="69" cy="35" r="1" fill="#1379FF"/>
<circle cx="76" cy="35" r="1" fill="#1379FF"/>
<circle cx="1" cy="42" r="1" fill="#1379FF"/>
<circle cx="8" cy="42" r="1" fill="#1379FF"/>
<circle cx="15" cy="42" r="1" fill="#1379FF"/>
<circle cx="21" cy="42" r="1" fill="#1379FF"/>
<circle cx="28" cy="42" r="1" fill="#1379FF"/>
<circle cx="35" cy="42" r="1" fill="#1379FF"/>
<circle cx="42" cy="42" r="1" fill="#1379FF"/>
<circle cx="49" cy="42" r="1" fill="#1379FF"/>
<circle cx="55" cy="42" r="1" fill="#1379FF"/>
<circle cx="62" cy="42" r="1" fill="#1379FF"/>
<circle cx="69" cy="42" r="1" fill="#1379FF"/>
<circle cx="76" cy="42" r="1" fill="#1379FF"/>
<circle cx="1" cy="49" r="1" fill="#1379FF"/>
<circle cx="8" cy="49" r="1" fill="#1379FF"/>
<circle cx="15" cy="49" r="1" fill="#1379FF"/>
<circle cx="21" cy="49" r="1" fill="#1379FF"/>
<circle cx="28" cy="49" r="1" fill="#1379FF"/>
<circle cx="35" cy="49" r="1" fill="#1379FF"/>
<circle cx="42" cy="49" r="1" fill="#1379FF"/>
<circle cx="49" cy="49" r="1" fill="#1379FF"/>
<circle cx="55" cy="49" r="1" fill="#1379FF"/>
<circle cx="62" cy="49" r="1" fill="#1379FF"/>
<circle cx="69" cy="49" r="1" fill="#1379FF"/>
<circle cx="76" cy="49" r="1" fill="#1379FF"/>
</g>
</svg>
