<svg width="112" height="74" viewBox="0 0 112 74" fill="none" xmlns="http://www.w3.org/2000/svg">
<path fill-rule="evenodd" clip-rule="evenodd" d="M96.7288 42.705C98.9071 37.6203 97.0068 33.1338 93.299 29.7286C89.2452 26.2251 84.1887 24.069 78.8384 23.5625C94.3418 32.5356 89.707 39.668 82.4767 47.2376C75.2464 54.8072 65.1889 63.3431 70.1945 73.6506C69.6847 67.2774 75.455 61.7785 81.7815 56.7398C88.108 51.7011 94.7821 47.2376 96.7983 42.705H96.7288Z" fill="url(#paint0_linear_611_8442)"/>
<path fill-rule="evenodd" clip-rule="evenodd" d="M84.0977 30.9686C81.7803 36.0303 83.7732 40.5168 87.4811 43.922C91.5423 47.4137 96.5949 49.5681 101.942 50.0881C86.4382 41.069 91.073 33.9826 98.3729 26.413C105.673 18.8434 115.614 10.3075 110.655 0C111.095 6.32716 105.371 11.8951 99.0681 16.9108C92.7648 21.9265 86.0675 26.367 84.0977 30.9686Z" fill="url(#paint1_linear_611_8442)"/>
<path fill-rule="evenodd" clip-rule="evenodd" d="M86.2781 31.1279C85.3214 33.3589 85.1392 35.8424 85.7601 38.1874C86.3811 40.5325 87.7698 42.6059 89.7079 44.0814C90.6139 44.9576 91.6168 45.7294 92.6973 46.3822L92.5351 46.2211C90.5054 44.1225 89.1084 41.5014 88.5022 38.6549C87.896 35.8084 88.105 32.8503 89.1053 30.1156C90.3383 27.2814 92.0906 24.6991 94.2731 22.5C91.0209 24.7415 88.2939 27.653 86.2781 31.0359V31.1279Z" fill="#FEFEFE"/>
<path fill-rule="evenodd" clip-rule="evenodd" d="M95.3611 42.1992C95.8446 41.3052 96.0662 40.2946 96.0006 39.2821C95.9351 38.2695 95.5851 37.2953 94.9903 36.4702C94.8169 36.1968 94.6149 35.9423 94.3878 35.7109C94.9048 36.8338 95.1724 38.054 95.1724 39.2887C95.1724 40.5233 94.9048 41.7435 94.3878 42.8664C94.1792 43.2805 93.9011 43.7177 93.623 44.2008C94.3172 43.641 94.9056 42.9633 95.3611 42.1992Z" fill="#FEFEFE"/>
<path fill-rule="evenodd" clip-rule="evenodd" d="M85.373 16.2646C87.6904 13.7798 91.2823 12.8595 93.1363 14.2169C94.9902 15.5744 94.5499 18.5424 92.1166 21.1193C89.6833 23.6962 86.1841 24.4554 84.3301 23.167C82.4762 21.8785 82.9165 18.7725 85.373 16.2646Z" fill="url(#paint2_linear_611_8442)"/>
<path d="M25.9076 42.7246C26.2229 42.5651 26.5734 42.486 26.9272 42.4945C27.0926 42.4675 27.2621 42.4795 27.4219 42.5297C27.5818 42.5799 27.7274 42.6668 27.8471 42.7834C27.9667 42.8999 28.057 43.0428 28.1106 43.2005C28.1642 43.3582 28.1795 43.5263 28.1554 43.691V45.4165H27.8774V44.9334H27.7383C27.7383 44.9334 27.7383 44.9334 27.5529 44.9334H27.3444H26.8114C26.5082 44.949 26.2102 44.8504 25.9771 44.6573C25.8829 44.5681 25.8078 44.461 25.756 44.3425C25.7043 44.2239 25.677 44.0963 25.6758 43.967C25.6745 43.8393 25.7057 43.7133 25.7664 43.6007C25.8272 43.4881 25.9156 43.3925 26.0234 43.3228C26.3068 43.3405 26.5796 43.4361 26.8114 43.5989H27.8078C27.8078 43.1618 27.6688 42.8857 27.298 42.7706C27.1836 42.7449 27.0648 42.7449 26.9504 42.7706H26.5796H26.3015H26.1393L25.9076 42.7246ZM27.8774 44.1971V43.875H27.1358H26.4869C26.3336 43.9111 26.1908 43.982 26.0698 44.0821V44.2431C26.0568 44.3193 26.0568 44.3971 26.0698 44.4732C26.0479 44.5484 26.0479 44.6281 26.0698 44.7033C26.0572 44.7795 26.0572 44.8572 26.0698 44.9334C26.1418 45.005 26.2289 45.06 26.3247 45.0944C26.4705 45.1185 26.6192 45.1185 26.765 45.0944H27.0663H27.298H27.5066V44.9564C27.5066 44.9564 27.5066 44.9564 27.5066 44.8413L27.8774 44.1971Z" fill="#615E5C"/>
<path d="M31.0528 42.5206H32.0493V42.7737H31.0528V44.1542V44.6143C31.0528 44.6143 31.0528 44.6143 31.0528 44.7524C31.0528 44.8904 31.0528 44.7524 31.0528 44.8674C31.2382 45.0975 31.5395 45.1205 31.9102 44.8674V45.1205H31.4468C31.425 45.1307 31.4013 45.136 31.3772 45.136C31.3532 45.136 31.3294 45.1307 31.3077 45.1205H31.1687C31.0808 45.026 31.0102 44.917 30.9601 44.7984C30.9601 44.6143 30.9601 44.5223 30.9601 44.4302V44.0851V42.7047H30.543V42.4516H30.9601V41.5312H31.2382L31.0528 42.5206Z" fill="#615E5C"/>
<path d="M32.582 42.7249C32.9069 42.5686 33.2639 42.4899 33.6249 42.4948C33.7885 42.4718 33.9553 42.4869 34.1121 42.5389C34.2689 42.5909 34.4114 42.6783 34.5282 42.7944C34.6451 42.9104 34.7332 43.0518 34.7856 43.2075C34.8379 43.3632 34.8531 43.5288 34.8299 43.6913V45.4168H34.5518V44.9337H34.3896C34.3896 44.9337 34.2737 44.9337 34.2042 44.9337H34.0188H33.7639C33.617 44.9432 33.4697 44.9237 33.3305 44.8763C33.1913 44.829 33.0629 44.7546 32.9528 44.6576C32.854 44.572 32.7757 44.4657 32.7236 44.3463C32.6715 44.2269 32.6469 44.0974 32.6516 43.9673C32.6455 43.8414 32.6722 43.716 32.729 43.6032C32.7858 43.4904 32.8709 43.3939 32.976 43.3231C33.1785 43.3764 33.3678 43.4704 33.5322 43.5992H34.5518C34.5717 43.4215 34.5297 43.2423 34.4327 43.0916C34.3357 42.9409 34.1896 42.8277 34.0188 42.7709C33.9044 42.7452 33.7856 42.7452 33.6712 42.7709H33.3004H33.0455H32.8601L32.582 42.7249ZM34.5518 44.1974V43.8753H33.7639H33.1382C32.9778 43.9112 32.8275 43.9819 32.6979 44.0824C32.7055 44.1358 32.7055 44.19 32.6979 44.2434C32.6854 44.3196 32.6854 44.3973 32.6979 44.4735C32.6747 44.5485 32.6747 44.6286 32.6979 44.7036C32.6854 44.7798 32.6854 44.8575 32.6979 44.9337C32.7788 45.0053 32.8734 45.06 32.976 45.0947C33.1138 45.1209 33.2553 45.1209 33.3931 45.0947H33.7639H33.9956H34.2042H34.3433C34.3433 45.0947 34.3433 45.0947 34.3433 44.9567C34.3433 44.9567 34.3433 44.9567 34.3433 44.8417L34.5518 44.1974Z" fill="#615E5C"/>
<path d="M38.3999 44.9597C38.4092 45.0669 38.4092 45.1746 38.3999 45.2818C38.3782 45.4123 38.331 45.5374 38.2609 45.6499C38.1878 45.7726 38.0937 45.8816 37.9828 45.972C37.8499 46.0782 37.7014 46.1636 37.5425 46.2251C37.3677 46.2699 37.1843 46.2699 37.0095 46.2251C36.6203 46.2127 36.2394 46.1103 35.8971 45.926V45.5809C36.0397 45.72 36.2108 45.8269 36.3987 45.8944C36.5867 45.9619 36.7871 45.9884 36.9863 45.972C37.1241 45.9981 37.2656 45.9981 37.4034 45.972H37.7047L37.9133 45.765C37.9656 45.6959 38.0049 45.6179 38.0291 45.5349C38.0421 45.4587 38.0421 45.381 38.0291 45.3048C38.0257 45.2512 38.0257 45.1974 38.0291 45.1437V44.5225L37.8669 44.7296C37.7935 44.818 37.7076 44.8955 37.612 44.9597C37.5055 45.0315 37.3882 45.0858 37.2644 45.1207C37.134 45.1431 37.0008 45.1431 36.8704 45.1207H36.3838C36.22 45.0542 36.0645 44.9693 35.9203 44.8677C35.7749 44.7532 35.6629 44.6023 35.5959 44.4305C35.504 44.2368 35.464 44.0228 35.48 43.8093C35.4821 43.6022 35.5295 43.3981 35.619 43.2111C35.7217 43.0019 35.8825 42.8263 36.0825 42.7049C36.2805 42.5508 36.5262 42.4695 36.7777 42.4748H37.1949H37.4961L37.751 42.6589C37.799 42.7183 37.8534 42.7724 37.9133 42.82V42.958V42.3828H38.3999V44.9597ZM36.9399 44.9597C37.2405 44.9525 37.5284 44.8382 37.751 44.6376C37.8684 44.5436 37.9628 44.4243 38.027 44.2888C38.0913 44.1533 38.1237 44.0051 38.1218 43.8553C38.1237 43.7056 38.0913 43.5573 38.027 43.4218C37.9628 43.2863 37.8684 43.1671 37.751 43.073C37.5371 42.8563 37.2456 42.7322 36.9399 42.7279C36.6376 42.7261 36.3465 42.8417 36.1289 43.05C36.0256 43.1529 35.9439 43.2749 35.8882 43.4091C35.8325 43.5433 35.8041 43.6871 35.8044 43.8323C35.8073 44.1316 35.9231 44.4189 36.1289 44.6376C36.2468 44.7452 36.386 44.8273 36.5376 44.8788C36.6892 44.9303 36.8498 44.95 37.0095 44.9367L36.9399 44.9597Z" fill="#615E5C"/>
<path d="M39.5804 44.1038V44.2649C39.5556 44.3317 39.5556 44.4051 39.5804 44.472C39.5727 44.5177 39.5727 44.5643 39.5804 44.61C39.5804 44.61 39.5804 44.7481 39.5804 44.7941V44.9321C39.7427 45.1392 40.0439 45.1622 40.4379 44.9321V45.1852H39.9744H39.8354H39.7195H39.5804C39.5216 45.1342 39.4742 45.0715 39.4414 45.0011V44.7711C39.4414 44.7711 39.4414 44.633 39.4414 44.564C39.4414 44.495 39.4414 44.4029 39.4414 44.3569C39.4546 44.2963 39.4546 44.2335 39.4414 44.1729V41.2969H39.7427L39.5804 44.1038Z" fill="#615E5C"/>
<path d="M41.2266 41.6445H41.6205V42.1277H41.2266V41.6445ZM41.5742 43.071V42.5188H41.2961V45.4178H41.5742V43.071Z" fill="#615E5C"/>
<path d="M42.6866 45.4165H42.4316V42.5175H42.6866V43.0237C42.7801 42.8484 42.9203 42.702 43.092 42.6006C43.2636 42.4991 43.4601 42.4465 43.6599 42.4485C43.8303 42.436 44.0015 42.4604 44.1615 42.52C44.3215 42.5796 44.4666 42.6729 44.5868 42.7936C44.7006 42.9173 44.788 43.0627 44.8438 43.2208C44.8995 43.379 44.9225 43.5467 44.9113 43.7139V45.4165H44.6332V43.8289C44.6332 43.0927 44.2856 42.7246 43.6367 42.7246C43.4201 42.7311 43.2112 42.806 43.0403 42.9384C42.8695 43.0708 42.7456 43.2538 42.6866 43.4608V45.4165Z" fill="#615E5C"/>
<path d="M46.0229 44.0839C46.0007 44.2056 46.0007 44.3303 46.0229 44.452C46.0801 44.5983 46.1668 44.7314 46.2778 44.8432C46.3779 44.9727 46.5153 45.069 46.6717 45.1193C46.8251 45.1454 46.9818 45.1454 47.1352 45.1193C47.2888 45.143 47.4451 45.143 47.5987 45.1193C47.6918 45.0794 47.7778 45.025 47.8536 44.9582V45.2803H47.7146C47.5235 45.3612 47.3195 45.408 47.112 45.4184C46.9046 45.408 46.7006 45.3612 46.5095 45.2803C46.3362 45.2025 46.179 45.0933 46.046 44.9582C45.9113 44.8209 45.8084 44.656 45.7448 44.475C45.671 44.292 45.6317 44.097 45.6289 43.8998C45.6317 43.7027 45.671 43.5077 45.7448 43.3247C45.8084 43.1437 45.9113 42.9787 46.046 42.8415C46.1884 42.701 46.3527 42.5845 46.5327 42.4964C46.7318 42.4595 46.9361 42.4595 47.1352 42.4964H47.4133C47.5225 42.532 47.6245 42.5865 47.7146 42.6574C47.8386 42.7386 47.9483 42.8397 48.039 42.9565C48.139 43.0976 48.2171 43.2527 48.2707 43.4167C48.296 43.6384 48.296 43.8622 48.2707 44.0839H46.0229ZM47.1816 42.7264C47.029 42.6919 46.8706 42.6919 46.7181 42.7264C46.579 42.7859 46.453 42.8719 46.3473 42.9795C46.2464 43.099 46.1608 43.2303 46.0924 43.3707C46.0725 43.4926 46.0725 43.6169 46.0924 43.7388H48.2012C48.2122 43.6163 48.2122 43.4931 48.2012 43.3707C48.1632 43.2599 48.1167 43.1523 48.0622 43.0485L47.8768 42.8415L47.6914 42.7264H47.5292H47.3438H47.1816Z" fill="#615E5C"/>
<path d="M53.5553 44.9597C53.5619 45.067 53.5619 45.1745 53.5553 45.2818C53.5527 45.4129 53.5125 45.5406 53.4394 45.6499C53.3513 45.7681 53.2503 45.8761 53.1381 45.972C53.0121 46.0877 52.8617 46.1742 52.6978 46.2251C52.523 46.2699 52.3396 46.2699 52.1648 46.2251C51.7825 46.2162 51.4083 46.1134 51.0757 45.926V45.5809C51.2163 45.7226 51.3872 45.8312 51.5756 45.8989C51.7641 45.9666 51.9654 45.9916 52.1648 45.972C52.2951 45.9958 52.4286 45.9958 52.5588 45.972C52.6582 45.9925 52.7607 45.9925 52.8601 45.972L53.0686 45.765C53.0686 45.765 53.0686 45.6039 53.2077 45.5349V45.3048C53.2159 45.2514 53.2159 45.1971 53.2077 45.1437V44.5225C53.1685 44.6019 53.1132 44.6724 53.0454 44.7296C52.972 44.818 52.8862 44.8955 52.7905 44.9597C52.6841 45.0315 52.5667 45.0858 52.4429 45.1207C52.3127 45.1445 52.1792 45.1445 52.049 45.1207C51.8953 45.1431 51.7392 45.1431 51.5855 45.1207C51.4193 45.0594 51.2632 44.9741 51.122 44.8677C50.9697 44.7546 50.8498 44.6039 50.7744 44.4305C50.6936 44.2334 50.6542 44.022 50.6585 43.8093C50.6576 43.5991 50.7137 43.3925 50.8207 43.2111C50.9079 42.9919 51.0727 42.8119 51.2842 42.7049C51.4822 42.5508 51.7279 42.4695 51.9794 42.4748H52.3734H52.6978C52.7848 42.5231 52.8631 42.5853 52.9296 42.6589L53.0918 42.82L53.2077 42.958V42.3828H53.5089L53.5553 44.9597ZM52.0953 44.9597C52.4023 44.9501 52.6967 44.8364 52.9296 44.6376C53.0403 44.5393 53.1286 44.4186 53.1885 44.2837C53.2485 44.1488 53.2787 44.0028 53.2772 43.8553C53.2787 43.7079 53.2485 43.5618 53.1885 43.4269C53.1286 43.292 53.0403 43.1713 52.9296 43.073C52.7045 42.8588 52.407 42.7358 52.0953 42.7279C51.7939 42.7308 51.5045 42.8457 51.2842 43.05C51.1841 43.154 51.1059 43.2767 51.0542 43.411C51.0025 43.5454 50.9783 43.6886 50.983 43.8323C50.9772 44.1289 51.0849 44.4166 51.2842 44.6376C51.508 44.8335 51.797 44.9401 52.0953 44.9367V44.9597Z" fill="#615E5C"/>
<path d="M55.8269 45.4872C55.6194 45.4768 55.4154 45.4301 55.2244 45.3491C55.051 45.2713 54.8939 45.1621 54.7609 45.027C54.6339 44.8839 54.5321 44.7205 54.4596 44.5439C54.3859 44.3608 54.3466 44.1658 54.3438 43.9687C54.3466 43.7715 54.3859 43.5765 54.4596 43.3935C54.5321 43.2168 54.6339 43.0535 54.7609 42.9103C54.9032 42.7699 55.0676 42.6533 55.2475 42.5652C55.4468 42.5304 55.6508 42.5304 55.8501 42.5652C56.0416 42.5307 56.2379 42.5307 56.4294 42.5652C56.6059 42.6478 56.7636 42.7652 56.8929 42.9103C57.0343 43.0467 57.1449 43.2114 57.2173 43.3935C57.2524 43.5759 57.2524 43.7632 57.2173 43.9457C57.2526 44.1358 57.2526 44.3307 57.2173 44.5209C57.1449 44.7029 57.0343 44.8676 56.8929 45.004C56.7689 45.1493 56.6093 45.2602 56.4294 45.3261C56.2398 45.415 56.0358 45.4695 55.8269 45.4872ZM55.8269 45.2111C55.9884 45.2329 56.1521 45.2329 56.3135 45.2111C56.4443 45.1392 56.5618 45.0459 56.6612 44.935C56.7793 44.8292 56.8673 44.6942 56.9161 44.5439C56.9536 44.385 56.9536 44.2196 56.9161 44.0607C56.9511 43.8938 56.9511 43.7215 56.9161 43.5545C56.8446 43.4159 56.7592 43.2849 56.6612 43.1634C56.5427 43.0608 56.41 42.9755 56.2672 42.9103C56.1147 42.8758 55.9563 42.8758 55.8037 42.9103C55.6512 42.8758 55.4928 42.8758 55.3402 42.9103C55.1974 42.9755 55.0647 43.0608 54.9463 43.1634L54.6914 43.5545C54.6688 43.7148 54.6688 43.8774 54.6914 44.0377C54.6562 44.1968 54.6562 44.3617 54.6914 44.5209C54.7486 44.6671 54.8353 44.8002 54.9463 44.912C55.0428 45.0352 55.1708 45.1306 55.3171 45.1881C55.4926 45.2219 55.6722 45.2296 55.8501 45.2111H55.8269Z" fill="#615E5C"/>
<path d="M58.3989 44.0842C58.4271 44.2099 58.4659 44.333 58.5148 44.4523C58.5636 44.6027 58.6515 44.7376 58.7697 44.8434C58.8663 44.9667 58.9943 45.062 59.1405 45.1195C59.2865 45.1409 59.4348 45.1409 59.5808 45.1195C59.7419 45.1457 59.9063 45.1457 60.0674 45.1195C60.1701 45.0848 60.2646 45.0301 60.3455 44.9585V45.2806H60.2065C60.0082 45.3642 59.7961 45.411 59.5808 45.4186C59.3808 45.408 59.1845 45.3612 59.0014 45.2806C58.8216 45.2147 58.6619 45.1037 58.538 44.9585C58.4038 44.8162 58.2942 44.653 58.2135 44.4753C58.1398 44.2922 58.1005 44.0973 58.0977 43.9001C58.1005 43.703 58.1398 43.508 58.2135 43.3249C58.2942 43.1473 58.4038 42.984 58.538 42.8418C58.6757 42.696 58.8411 42.5788 59.0246 42.4966C59.2081 42.4595 59.3973 42.4595 59.5808 42.4966H59.8821C59.9967 42.5363 60.1058 42.5904 60.2065 42.6577L60.5078 42.9568C60.6165 43.0925 60.6954 43.2492 60.7395 43.417C60.7767 43.6378 60.7767 43.8633 60.7395 44.0842H58.3989ZM59.5808 42.7267C59.4283 42.6922 59.2699 42.6922 59.1173 42.7267C58.985 42.7977 58.8607 42.8826 58.7465 42.9798C58.6523 43.0995 58.5744 43.231 58.5148 43.3709C58.4689 43.4913 58.4302 43.6142 58.3989 43.7391H60.5309C60.5453 43.6168 60.5453 43.4932 60.5309 43.3709C60.4958 43.2552 60.4409 43.1462 60.3687 43.0488L60.2065 42.8418C60.1454 42.79 60.0745 42.7509 59.9979 42.7267H59.8357H59.6503H59.5808Z" fill="#615E5C"/>
<path d="M63.2418 43.0256H62.9637C62.8464 42.9697 62.7215 42.9309 62.5929 42.9106C62.4636 42.8785 62.3283 42.8785 62.199 42.9106C62.0627 42.9514 61.9417 43.0315 61.8514 43.1407C61.8239 43.2023 61.8097 43.2689 61.8097 43.3362C61.8097 43.4036 61.8239 43.4702 61.8514 43.5318C61.9272 43.6457 62.0427 43.7276 62.1758 43.7619L62.6393 43.9229L63.1259 44.107C63.2769 44.1558 63.4072 44.2529 63.4967 44.3831C63.5462 44.5247 63.5462 44.6787 63.4967 44.8202C63.496 44.9216 63.4728 45.0216 63.4287 45.1131C63.3846 45.2045 63.3208 45.2852 63.2418 45.3494C63.1107 45.479 62.939 45.5601 62.7552 45.5795C62.555 45.6025 62.3528 45.6025 62.1526 45.5795C61.9763 45.5611 61.8041 45.5144 61.6428 45.4415C61.5218 45.3946 61.4115 45.3242 61.3184 45.2344L61.4574 45.0043H61.6196L61.9904 45.1654C62.1448 45.2312 62.3094 45.2701 62.4771 45.2804C62.6759 45.2944 62.8732 45.2373 63.0332 45.1194C63.1508 45.0037 63.2175 44.8465 63.2186 44.6822C63.2131 44.6241 63.1958 44.5677 63.168 44.5164C63.1401 44.465 63.1022 44.4197 63.0564 44.3831L62.7088 44.199L62.199 44.061C61.944 43.9822 61.7235 43.82 61.5733 43.6008C61.5038 43.5194 61.4567 43.4216 61.4364 43.3168C61.4161 43.212 61.4234 43.1038 61.4574 43.0026C61.4943 42.8996 61.5526 42.8055 61.6284 42.7262C61.7043 42.647 61.796 42.5844 61.8977 42.5425C62.0917 42.4244 62.3234 42.3833 62.5466 42.4274C62.6908 42.4443 62.8314 42.4831 62.9637 42.5425L63.3113 42.6805H63.4272L63.2418 43.0256Z" fill="#615E5C"/>
<path d="M66.0213 43.0455C66.0521 42.9739 66.0998 42.9108 66.1604 42.8614C66.2161 42.7943 66.2782 42.7327 66.3458 42.6773L66.6702 42.5163C66.8082 42.4922 66.9493 42.4922 67.0873 42.5163C67.2633 42.4816 67.4444 42.4816 67.6203 42.5163C67.7555 42.5914 67.8738 42.6932 67.9679 42.8154C68.0464 42.9409 68.1161 43.0716 68.1765 43.2065C68.1879 43.3597 68.1879 43.5135 68.1765 43.6667V45.3693H67.8984V43.5977C67.8785 43.5301 67.8785 43.4582 67.8984 43.3906C67.904 43.314 67.904 43.2371 67.8984 43.1605C67.8572 43.0891 67.802 43.0265 67.7362 42.9764C67.6604 42.9096 67.5744 42.8552 67.4813 42.8154C67.3589 42.7912 67.2329 42.7912 67.1105 42.8154C66.8906 42.8177 66.6768 42.8875 66.4984 43.0152C66.32 43.1429 66.1857 43.3222 66.114 43.5286V45.5303H65.8359V41.2969H66.114L66.0213 43.0455Z" fill="#615E5C"/>
<path d="M69.3354 44.0856C69.3248 44.2081 69.3248 44.3312 69.3354 44.4537C69.3926 44.6 69.4793 44.7331 69.5903 44.8448C69.6868 44.9681 69.8149 45.0634 69.9611 45.1209C70.1222 45.1471 70.2866 45.1471 70.4477 45.1209C70.6013 45.1447 70.7576 45.1447 70.9112 45.1209C71.0043 45.0811 71.0903 45.0267 71.1661 44.9599V45.282H71.0271C70.8352 45.3604 70.6316 45.407 70.4245 45.42C70.2167 45.4122 70.0123 45.3654 69.822 45.282C69.6487 45.2042 69.4915 45.0949 69.3585 44.9599C69.2156 44.8291 69.1115 44.662 69.0573 44.4767C68.9835 44.2936 68.9442 44.0987 68.9414 43.9015C68.9442 43.7044 68.9835 43.5094 69.0573 43.3263C69.1115 43.141 69.2156 42.9739 69.3585 42.8432C69.5009 42.7027 69.6652 42.5862 69.8452 42.498C70.0441 42.459 70.2488 42.459 70.4477 42.498H70.7258C70.8329 42.5383 70.9342 42.5924 71.0271 42.6591C71.1511 42.7403 71.2608 42.8414 71.3515 42.9582C71.4427 43.1043 71.5202 43.2583 71.5832 43.4184C71.6085 43.6401 71.6085 43.8639 71.5832 44.0856H69.3354ZM70.5172 42.7281C70.3569 42.6932 70.1909 42.6932 70.0306 42.7281C69.8983 42.7991 69.7739 42.884 69.6598 42.9812C69.5655 43.1009 69.4876 43.2324 69.4281 43.3723C69.4201 43.4949 69.4201 43.6179 69.4281 43.7405H71.5369C71.5513 43.6182 71.5513 43.4946 71.5369 43.3723C71.5018 43.2566 71.4469 43.1476 71.3747 43.0502C71.3324 42.9729 71.2776 42.9029 71.2125 42.8432L71.0271 42.7281H70.8648H70.6795H70.5172Z" fill="#615E5C"/>
<path d="M74.0415 42.7952H73.8561C73.773 42.7703 73.6843 42.7703 73.6012 42.7952L73.2767 42.9793C73.1685 43.0811 73.0749 43.1972 72.9986 43.3244C72.9198 43.5182 72.8578 43.7183 72.8132 43.9226V45.3261H72.5352V42.5191H72.8132V43.3244C72.9369 43.0508 73.1382 42.8189 73.3926 42.6572C73.5918 42.5501 73.815 42.4947 74.0415 42.4961V42.7952Z" fill="#615E5C"/>
<path d="M74.1099 44.0822C74.1269 44.2106 74.1661 44.3351 74.2257 44.4503C74.2659 44.5991 74.346 44.7343 74.4575 44.8414C74.5586 44.9599 74.6854 45.0543 74.8283 45.1175C74.982 45.1392 75.138 45.1392 75.2917 45.1175C75.4608 45.1414 75.6325 45.1414 75.8016 45.1175L76.0333 44.9565V45.2786H75.8943C75.7032 45.3595 75.4992 45.4063 75.2917 45.4166C75.0843 45.4063 74.8803 45.3595 74.6892 45.2786C74.5159 45.2008 74.3587 45.0915 74.2257 44.9565C74.0909 44.8192 73.9881 44.6543 73.9245 44.4733C73.8507 44.2902 73.8114 44.0953 73.8086 43.8981C73.8114 43.701 73.8507 43.506 73.9245 43.3229C73.9881 43.1419 74.0909 42.977 74.2257 42.8397C74.3681 42.6993 74.5324 42.5828 74.7124 42.4946C74.9039 42.4601 75.1002 42.4601 75.2917 42.4946H75.6162L75.9174 42.6557L76.2187 42.9548C76.3198 43.0921 76.3908 43.2488 76.4273 43.4149C76.4644 43.6358 76.4644 43.8613 76.4273 44.0822H74.1099ZM75.2917 42.7247C75.1314 42.6898 74.9654 42.6898 74.8051 42.7247C74.6727 42.7957 74.5484 42.8806 74.4343 42.9778C74.347 43.098 74.2768 43.2297 74.2257 43.3689C74.1694 43.4854 74.1303 43.6094 74.1099 43.7371H76.2187C76.2331 43.6148 76.2331 43.4912 76.2187 43.3689C76.1835 43.2532 76.1287 43.1442 76.0565 43.0468C76.0217 42.9648 75.9657 42.8934 75.8943 42.8397L75.7089 42.7247H75.5466H75.3613H75.2917Z" fill="#615E5C"/>
<path d="M24.5177 44.5413L1.50586 44.6103V44.3112L24.5177 44.2422V44.5413Z" fill="#615E5C"/>
<path d="M13.0701 40.2423H9.96482L8.13407 31.8904L6.3265 40.2423H3.22119L0 28.5312H3.01262L4.86654 36.63L6.55824 28.5312H9.68674L11.2857 36.699L12.9311 29.6586C12.9929 29.3398 13.1717 29.055 13.4329 28.8595C13.694 28.664 14.0189 28.5716 14.3447 28.6003H16.2913L13.0701 40.2423Z" fill="url(#paint3_linear_611_8442)"/>
<path d="M25.2829 36.6953H27.6003C27.3432 37.8285 26.6854 38.8325 25.7463 39.5253C24.7343 40.2212 23.5239 40.5761 22.2934 40.5376C21.552 40.5756 20.8115 40.4487 20.1258 40.1661C19.4402 39.8834 18.8269 39.4523 18.3307 38.9041C17.3035 37.596 16.8 35.957 16.917 34.3025C16.8234 32.7218 17.3091 31.1609 18.2843 29.908C18.773 29.369 19.375 28.9433 20.0478 28.661C20.7206 28.3788 21.4477 28.2468 22.1775 28.2744C22.936 28.2307 23.6951 28.3499 24.4029 28.6239C25.1108 28.8978 25.7508 29.3201 26.2793 29.862C27.3168 31.1657 27.8289 32.8058 27.7161 34.4636V34.9467C27.7349 35.0456 27.7349 35.147 27.7161 35.2458H20.0455C20.0093 35.9801 20.2487 36.7015 20.7176 37.2705C20.9284 37.513 21.193 37.7036 21.4905 37.8274C21.7881 37.9511 22.1105 38.0047 22.4325 37.9838C22.8861 37.9919 23.3338 37.8808 23.7302 37.6616C23.819 37.6383 23.8994 37.5904 23.9619 37.5236L24.2169 37.2705C24.2169 37.2705 24.3559 37.0634 24.5413 36.9254C24.7561 36.7695 25.0169 36.6886 25.2829 36.6953ZM19.976 33.2671H24.6108C24.6098 32.6304 24.389 32.0132 23.9851 31.5186C23.7721 31.3034 23.5148 31.1366 23.2308 31.0294C22.9469 30.9221 22.6429 30.8771 22.3398 30.8973C22.0479 30.8856 21.7568 30.9348 21.4854 31.0418C21.2139 31.1488 20.9681 31.3112 20.7639 31.5186C20.291 31.9552 20.0083 32.5578 19.976 33.1981V33.2671Z" fill="url(#paint4_linear_611_8442)"/>
<path d="M28.2969 25.1955H29.8959C30.2923 25.1889 30.6753 25.3377 30.9619 25.6097C31.1032 25.7428 31.2152 25.9035 31.291 26.0817C31.3668 26.2598 31.4046 26.4516 31.4022 26.645V40.3347H28.2969V25.1955Z" fill="url(#paint5_linear_611_8442)"/>
<path d="M32.0742 25.1955H33.7659C34.1623 25.1889 34.5453 25.3377 34.8319 25.6097C35.1087 25.8848 35.2666 26.2562 35.2722 26.645V40.3347H32.1669L32.0742 25.1955Z" fill="url(#paint6_linear_611_8442)"/>
<path d="M45.978 40.2406H44.4253C44.2286 40.2478 44.0324 40.2147 43.849 40.1435C43.6656 40.0722 43.4989 39.9643 43.3593 39.8264C43.2121 39.6881 43.0966 39.5199 43.0207 39.3333C42.9447 39.1467 42.91 38.9461 42.919 38.7451V32.763C42.9457 32.4752 42.9029 32.1852 42.794 31.9171C42.6852 31.649 42.5136 31.4105 42.2933 31.2215C41.8826 30.905 41.3765 30.7348 40.8565 30.7383C40.3366 30.7348 39.8305 30.905 39.4198 31.2215C39.208 31.4162 39.0437 31.6561 38.9393 31.9232C38.8349 32.1903 38.7932 32.4775 38.8172 32.763V40.2406H35.7119V33.3382C35.605 32.5927 35.6939 31.8324 35.97 31.131C36.2461 30.4296 36.7 29.8109 37.2877 29.3349C38.3184 28.6487 39.5235 28.2659 40.7638 28.2305C42.0329 28.228 43.2773 28.5787 44.3558 29.2428C44.9595 29.7282 45.4263 30.3605 45.7106 31.0782C45.9949 31.796 46.087 32.5746 45.978 33.3382V40.2406Z" fill="url(#paint7_linear_611_8442)"/>
<path d="M54.6198 36.6966H56.9372C56.6801 37.8298 56.0224 38.8338 55.0833 39.5266C54.0641 40.2258 52.8453 40.5807 51.6072 40.5389C50.8696 40.5735 50.1336 40.4449 49.4522 40.1623C48.7709 39.8798 48.1613 39.4505 47.6676 38.9054C46.6304 37.6026 46.1256 35.9596 46.254 34.3038C46.1735 32.7173 46.6758 31.1558 47.6676 29.9093C48.1613 29.3642 48.7709 28.9349 49.4522 28.6524C50.1336 28.3698 50.8696 28.2412 51.6072 28.2758C52.3695 28.2287 53.133 28.3462 53.8451 28.6203C54.5572 28.8943 55.201 29.3184 55.7322 29.8633C56.7633 31.1693 57.2673 32.8099 57.1458 34.4649V34.948C57.1614 35.0471 57.1614 35.148 57.1458 35.2471H49.4752C49.443 35.977 49.673 36.6946 50.1241 37.2718C50.3417 37.5121 50.6108 37.7008 50.9116 37.8243C51.2123 37.9477 51.5371 38.0026 51.8621 37.9851C52.3094 38.0022 52.7521 37.8903 53.1367 37.663C53.2325 37.6402 53.3204 37.5925 53.3916 37.5249L53.6465 37.2718C53.6465 37.2718 53.7856 37.0648 53.9709 36.9267C54.1601 36.7889 54.3856 36.709 54.6198 36.6966ZM49.313 33.2685H53.8319C53.8202 32.6336 53.6006 32.0197 53.2062 31.5199C52.9923 31.306 52.7349 31.1399 52.4511 31.0328C52.1674 30.9257 51.8638 30.8799 51.5609 30.8986C51.2657 30.8879 50.9714 30.9375 50.6963 31.0443C50.4213 31.1512 50.1713 31.3131 49.9618 31.5199C49.5643 31.9897 49.3504 32.5859 49.3593 33.1994L49.313 33.2685Z" fill="url(#paint8_linear_611_8442)"/>
<path d="M57.2853 36.3749H60.2979C60.2969 36.6308 60.3574 36.8832 60.4742 37.1113C60.5911 37.3393 60.761 37.5365 60.9699 37.6864C61.4989 38.0057 62.1131 38.1581 62.7312 38.1235C63.2124 38.1391 63.69 38.0364 64.1216 37.8244C64.2759 37.7472 64.4054 37.6288 64.4954 37.4824C64.5855 37.3361 64.6326 37.1676 64.6314 36.9961C64.6314 36.4669 64.0289 36.0528 62.7775 35.7997C62.3697 35.7361 61.967 35.6439 61.5725 35.5236C60.4322 35.3363 59.3569 34.8698 58.444 34.1662C58.144 33.9025 57.9071 33.5756 57.7507 33.2094C57.5944 32.8431 57.5224 32.4468 57.5402 32.0494C57.5344 31.5221 57.648 31.0002 57.8726 30.5223C58.0972 30.0445 58.4271 29.6228 58.8379 29.2885C59.844 28.5803 61.0587 28.2242 62.2908 28.2761C63.5963 28.2158 64.8871 28.5704 65.9755 29.2885C66.3862 29.6374 66.7196 30.0669 66.9549 30.5499C67.1903 31.033 67.3223 31.5592 67.3428 32.0954H65.4425C65.1795 32.1002 64.92 32.0343 64.6915 31.9047C64.4631 31.7751 64.2742 31.5866 64.1448 31.3592L63.7972 30.9911C63.3682 30.7023 62.8542 30.5646 62.3372 30.5999C61.8795 30.5664 61.4215 30.6622 61.0163 30.876C60.8812 30.9559 60.7708 31.0711 60.6973 31.2091C60.6237 31.3471 60.5897 31.5025 60.5991 31.6583C60.5991 32.1185 61.3871 32.5326 62.9165 32.8547H63.38C63.5027 32.8757 63.6281 32.8757 63.7508 32.8547C64.8999 33.1399 65.9744 33.6655 66.9025 34.3962C67.1819 34.6674 67.4006 34.9941 67.5443 35.3548C67.6881 35.7156 67.7537 36.1024 67.7367 36.4899C67.7695 37.0691 67.6575 37.6473 67.4109 38.1731C67.1643 38.6989 66.7906 39.1561 66.3231 39.504C65.129 40.2322 63.7349 40.5702 62.3372 40.4703C60.999 40.5666 59.6674 40.2098 58.5598 39.458C58.1274 39.0975 57.7866 38.6409 57.5651 38.1252C57.3437 37.6096 57.2478 37.0493 57.2853 36.4899V36.3749Z" fill="url(#paint9_linear_611_8442)"/>
<path d="M67.9689 36.3749H70.9815C70.9805 36.6308 71.041 36.8832 71.1578 37.1113C71.2747 37.3393 71.4446 37.5365 71.6535 37.6864C72.1825 38.0057 72.7966 38.1581 73.4147 38.1235C73.8887 38.1412 74.3594 38.0382 74.782 37.8244C74.9424 37.7528 75.0782 37.6363 75.1729 37.4892C75.2676 37.342 75.317 37.1707 75.315 36.9961C75.315 36.4669 74.6893 36.0528 73.4611 35.7997C73.0533 35.7361 72.6506 35.6439 72.256 35.5236C71.1158 35.3363 70.0405 34.8698 69.1276 34.1662C68.8275 33.9025 68.5907 33.5756 68.4343 33.2094C68.278 32.8431 68.206 32.4468 68.2238 32.0494C68.218 31.5221 68.3316 31.0002 68.5562 30.5223C68.7808 30.0445 69.1107 29.6228 69.5215 29.2885C70.5276 28.5803 71.7422 28.2242 72.9744 28.2761C74.2799 28.2158 75.5707 28.5704 76.6591 29.2885C77.0698 29.6374 77.4032 30.0669 77.6385 30.5499C77.8738 31.033 78.0059 31.5592 78.0264 32.0954H76.1261C75.8626 32.1027 75.6021 32.0379 75.3732 31.9081C75.1443 31.7782 74.9558 31.5883 74.8284 31.3592L74.4808 30.9911C74.0518 30.7023 73.5378 30.5646 73.0208 30.5999C72.5559 30.5705 72.0917 30.6659 71.6767 30.876C71.5476 30.9606 71.4433 31.0774 71.3741 31.2147C71.305 31.3521 71.2734 31.505 71.2827 31.6583C71.2827 32.1185 72.0475 32.5326 73.6001 32.8547H74.0636C74.1863 32.8757 74.3117 32.8757 74.4344 32.8547C75.5668 33.0776 76.6402 33.5321 77.5861 34.1892C77.8655 34.4604 78.0842 34.787 78.2279 35.1477C78.3717 35.5085 78.4372 35.8953 78.4203 36.2829C78.4531 36.862 78.3411 37.4402 78.0945 37.966C77.8479 38.4919 77.4742 38.949 77.0067 39.2969C75.8114 40.0222 74.4183 40.36 73.0208 40.2632C71.6826 40.3596 70.351 40.0027 69.2434 39.2509C68.811 38.8904 68.4702 38.4339 68.2487 37.9182C68.0273 37.4025 67.9314 36.8422 67.9689 36.2829V36.3749Z" fill="url(#paint10_linear_611_8442)"/>
<defs>
<linearGradient id="paint0_linear_611_8442" x1="64.8413" y1="39.0698" x2="86.6504" y2="55.5099" gradientUnits="userSpaceOnUse">
<stop stop-color="#FFA261"/>
<stop offset="1" stop-color="#F17B00"/>
</linearGradient>
<linearGradient id="paint1_linear_611_8442" x1="85.3722" y1="11.849" x2="107.182" y2="28.2661" gradientUnits="userSpaceOnUse">
<stop stop-color="#FFA261"/>
<stop offset="1" stop-color="#F17B00"/>
</linearGradient>
<linearGradient id="paint2_linear_611_8442" x1="83.1714" y1="18.6114" x2="94.295" y2="18.6114" gradientUnits="userSpaceOnUse">
<stop stop-color="#FFA261"/>
<stop offset="1" stop-color="#F17B00"/>
</linearGradient>
<linearGradient id="paint3_linear_611_8442" x1="-2.03931" y1="33.2709" x2="72.0151" y2="40.4124" gradientUnits="userSpaceOnUse">
<stop stop-color="#FFA261"/>
<stop offset="1" stop-color="#F17B00"/>
</linearGradient>
<linearGradient id="paint4_linear_611_8442" x1="-1.92344" y1="32.0707" x2="72.131" y2="39.2123" gradientUnits="userSpaceOnUse">
<stop stop-color="#FFA261"/>
<stop offset="1" stop-color="#F17B00"/>
</linearGradient>
<linearGradient id="paint5_linear_611_8442" x1="-1.6903" y1="29.7511" x2="72.3641" y2="36.8926" gradientUnits="userSpaceOnUse">
<stop stop-color="#FFA261"/>
<stop offset="1" stop-color="#F17B00"/>
</linearGradient>
<linearGradient id="paint6_linear_611_8442" x1="-1.64399" y1="29.383" x2="72.3873" y2="36.5245" gradientUnits="userSpaceOnUse">
<stop stop-color="#FFA261"/>
<stop offset="1" stop-color="#F17B00"/>
</linearGradient>
<linearGradient id="paint7_linear_611_8442" x1="-1.76047" y1="30.4392" x2="72.2939" y2="37.5808" gradientUnits="userSpaceOnUse">
<stop stop-color="#FFA261"/>
<stop offset="1" stop-color="#F17B00"/>
</linearGradient>
<linearGradient id="paint8_linear_611_8442" x1="-1.64669" y1="29.3111" x2="72.4077" y2="36.4526" gradientUnits="userSpaceOnUse">
<stop stop-color="#FFA261"/>
<stop offset="1" stop-color="#F17B00"/>
</linearGradient>
<linearGradient id="paint9_linear_611_8442" x1="-1.57673" y1="28.2991" x2="72.5008" y2="35.4407" gradientUnits="userSpaceOnUse">
<stop stop-color="#FFA261"/>
<stop offset="1" stop-color="#F17B00"/>
</linearGradient>
<linearGradient id="paint10_linear_611_8442" x1="-1.48366" y1="27.2868" x2="72.5939" y2="34.4283" gradientUnits="userSpaceOnUse">
<stop stop-color="#FFA261"/>
<stop offset="1" stop-color="#F17B00"/>
</linearGradient>
</defs>
</svg>
