<svg width="132" height="33" viewBox="0 0 132 33" fill="none" xmlns="http://www.w3.org/2000/svg">
<g clip-path="url(#clip0_611_8364)">
<mask id="mask0_611_8364" style="mask-type:luminance" maskUnits="userSpaceOnUse" x="0" y="0" width="22" height="23">
<path d="M10.9932 0C11.0998 4.28719 10.1533 8.53504 8.23657 12.3708C6.31986 16.2065 3.4916 19.5128 0 21.9996C2.90651 22.0706 5.79715 21.5501 8.49659 20.4697C11.196 19.3892 13.648 17.7714 15.7039 15.7142C17.7597 13.657 19.3765 11.2034 20.4562 8.50218C21.536 5.80096 22.0561 2.90842 21.9852 0H10.9932Z" fill="white"/>
</mask>
<g mask="url(#mask0_611_8364)">
<path d="M22.1288 0H0V22.1433H22.1288V0Z" fill="url(#paint0_linear_611_8364)"/>
</g>
<mask id="mask1_611_8364" style="mask-type:luminance" maskUnits="userSpaceOnUse" x="0" y="0" width="22" height="23">
<path d="M0 10.9992C4.2843 11.1063 8.52937 10.1594 12.3626 8.2416C16.1958 6.32383 19.5 3.49383 21.9852 0C22.0561 2.90842 21.536 5.80096 20.4562 8.50218C19.3765 11.2034 17.7597 13.657 15.7039 15.7142C13.648 17.7714 11.196 19.3892 8.49659 20.4697C5.79715 21.5501 2.90651 22.0706 0 21.9996V10.9992Z" fill="white"/>
</mask>
<g mask="url(#mask1_611_8364)">
<path d="M22.1288 0H0V22.1433H22.1288V0Z" fill="url(#paint1_linear_611_8364)"/>
</g>
<path fill-rule="evenodd" clip-rule="evenodd" d="M0 10.9983C3.22384 11.0798 6.43494 10.5639 9.47123 9.47656C8.7986 10.3674 8.48729 11.4798 8.59968 12.5906C8.71207 13.7015 9.23985 14.7288 10.0773 15.4667C10.9147 16.2046 11.9998 16.5985 13.1153 16.5696C14.2307 16.5406 15.294 16.0909 16.0921 15.3106C15.9638 15.4448 15.8344 15.5767 15.7039 15.7085C13.6478 17.7654 11.1958 19.3831 8.4964 20.4635C5.79701 21.544 2.90647 22.0646 0 21.994V10.9936" fill="#FFFF00"/>
<path fill-rule="evenodd" clip-rule="evenodd" d="M10.1921 7.12091C9.98947 7.91921 9.74966 8.70443 9.47266 9.4766C9.9863 9.29207 10.4936 9.09408 10.9946 8.88263C15.4025 6.98705 19.205 3.91561 21.9866 0.00390625C18.914 3.12679 15.1478 5.47941 10.9946 6.87024C10.7287 6.96052 10.4604 7.04487 10.1921 7.12565" fill="#5B0298"/>
<mask id="mask2_611_8364" style="mask-type:luminance" maskUnits="userSpaceOnUse" x="10" y="10" width="23" height="23">
<path d="M21.9847 32.9982C21.8777 28.7109 22.8242 24.463 24.7409 20.6272C26.6576 16.7914 29.4861 13.4851 32.9779 10.9986C30.0714 10.9276 27.1807 11.4481 24.4813 12.5285C21.7819 13.609 19.3299 15.2268 17.274 17.284C15.2182 19.3412 13.6014 21.7948 12.5217 24.496C11.4419 27.1973 10.9218 30.0898 10.9927 32.9982H21.9847Z" fill="white"/>
</mask>
<g mask="url(#mask2_611_8364)">
<path d="M32.9765 10.8555H10.8477V32.9988H32.9765V10.8555Z" fill="url(#paint2_linear_611_8364)"/>
</g>
<mask id="mask3_611_8364" style="mask-type:luminance" maskUnits="userSpaceOnUse" x="10" y="10" width="23" height="23">
<path d="M32.9779 21.999C28.6936 21.8917 24.4484 22.8385 20.6151 24.7563C16.7819 26.6741 13.4777 29.5042 10.9927 32.9982C10.9218 30.0898 11.4419 27.1973 12.5217 24.496C13.6014 21.7948 15.2182 19.3412 17.274 17.284C19.3299 15.2268 21.7819 13.609 24.4813 12.5285C27.1807 11.4481 30.0714 10.9276 32.9779 10.9986V21.999Z" fill="white"/>
</mask>
<g mask="url(#mask3_611_8364)">
<path d="M32.9765 10.8555H10.8477V32.9988H32.9765V10.8555Z" fill="url(#paint3_linear_611_8364)"/>
</g>
<path fill-rule="evenodd" clip-rule="evenodd" d="M32.9788 22.002C29.7549 21.9205 26.5438 22.4364 23.5076 23.5238C24.1802 22.6329 24.4915 21.5206 24.3791 20.4097C24.2667 19.2988 23.7389 18.2715 22.9015 17.5336C22.0641 16.7957 20.9789 16.4018 19.8635 16.4307C18.7481 16.4597 17.6848 16.9094 16.8867 17.6897C17.0149 17.5555 17.1431 17.4236 17.2749 17.2918C19.3309 15.2348 21.7829 13.6171 24.4823 12.5367C27.1817 11.4562 30.0723 10.9356 32.9788 11.0064V22.0067" fill="#FFFF00"/>
<path fill-rule="evenodd" clip-rule="evenodd" d="M22.7868 25.8791C22.9902 25.0808 23.2276 24.2956 23.4991 23.5234C22.9862 23.7076 22.4781 23.9071 21.9783 24.1174C17.5704 26.013 13.7679 29.0844 10.9863 32.9961C14.0591 29.8735 17.8253 27.5209 21.9783 26.1298C22.2442 26.0395 22.5114 25.9551 22.7808 25.8744" fill="#0131B9"/>
<path d="M97.3052 22.0268H99.1108V11.302H97.3052V22.0268ZM91.2375 20.8127C90.3139 20.8127 89.7654 20.3933 89.7654 19.7435C89.7654 19.1793 90.0967 18.7172 91.3242 18.7172H93.1857V19.6129C92.8853 20.4076 92.1172 20.8127 91.2375 20.8127ZM91.4833 14.2208C90.2415 14.2208 89.0425 14.5391 88.2186 15.1711L88.9309 16.4874C89.5078 16.0122 90.4042 15.7211 91.2708 15.7211C92.5565 15.7211 93.1916 16.3424 93.1916 17.3973V17.5161H91.1984C88.8585 17.5161 87.993 18.5271 87.993 19.8148C87.993 21.1584 89.1066 22.1277 90.8683 22.1277C92.0234 22.1277 92.8616 21.7512 93.2949 21.0859V22.0256H94.9997V17.5019C94.9937 15.2757 93.708 14.2208 91.4833 14.2208ZM83.6883 22.1289C85.1901 22.1289 86.3892 21.4779 86.9815 20.3209L85.5949 19.5119C85.3978 19.8441 85.1161 20.118 84.7787 20.3058C84.4413 20.4936 84.0601 20.5886 83.6741 20.581C82.3445 20.581 81.3342 19.6711 81.3342 18.1683C81.3342 16.6656 82.3445 15.7544 83.6741 15.7544C84.0602 15.7465 84.4415 15.8413 84.779 16.0291C85.1165 16.217 85.398 16.4911 85.5949 16.8236L86.9815 16.0134C86.388 14.8433 85.1901 14.2208 83.6883 14.2208C81.2463 14.2208 79.5131 15.8554 79.5131 18.1683C79.5131 20.4813 81.2416 22.1289 83.6883 22.1289ZM75.9718 22.0268H77.7774V14.3051H75.9718V22.0268ZM76.8823 13.0364C77.0333 13.0427 77.184 13.0181 77.3251 12.9641C77.4662 12.91 77.5948 12.8277 77.703 12.7221C77.8111 12.6165 77.8966 12.49 77.9541 12.3501C78.0116 12.2103 78.04 12.0602 78.0374 11.909C78.0374 11.315 77.5459 10.8672 76.8823 10.8672C76.2187 10.8672 75.726 11.3424 75.726 11.9518C75.726 12.5612 76.2151 13.0364 76.8799 13.0364H76.8823ZM69.529 20.581C68.2231 20.581 67.233 19.6426 67.233 18.1683C67.233 16.6941 68.229 15.7544 69.529 15.7544C70.8289 15.7544 71.8262 16.6929 71.8262 18.1683C71.8262 19.6438 70.8278 20.581 69.5266 20.581H69.529ZM71.7977 11.302V15.2626C71.191 14.5498 70.309 14.2208 69.3129 14.2208C67.0739 14.2208 65.4131 15.7651 65.4131 18.1683C65.4131 20.5715 67.0751 22.1289 69.3129 22.1289C70.3671 22.1289 71.2623 21.7666 71.8689 21.0289V22.0268H73.5974V11.302H71.7977ZM60.4127 15.6665C61.5999 15.6665 62.4487 16.4327 62.5936 17.5458H58.2165C58.3898 16.4185 59.2422 15.6665 60.4127 15.6665ZM64.3126 18.2111C64.3126 15.7972 62.666 14.2208 60.4127 14.2208C58.1156 14.2208 56.425 15.8696 56.425 18.1683C56.425 20.467 58.1013 22.1289 60.687 22.1289C62.0154 22.1289 63.0993 21.6942 63.7926 20.8709L62.8251 19.7578C62.2754 20.3209 61.5963 20.5965 60.7297 20.5965C59.387 20.5965 58.448 19.873 58.2307 18.7457H64.2853C64.2971 18.5722 64.3126 18.3548 64.3126 18.2111ZM54.5113 22.0268L54.4971 11.909H52.9538L49.0076 18.6162L44.9867 11.909H43.4434V22.0268H45.2348V15.4063L48.5589 20.8709H49.3994L52.7234 15.3196L52.7389 22.0268H54.5113Z" fill="black"/>
<path d="M128.693 22.1162C130.73 22.1162 132 21.2347 132 19.8496C132 16.8714 127.147 18.3457 127.147 16.5364C127.147 15.9306 127.74 15.4815 128.953 15.4815C129.732 15.4638 130.5 15.6748 131.162 16.0886L131.755 14.9897C131.092 14.5561 129.965 14.2959 128.968 14.2959C127.003 14.2959 125.776 15.2214 125.776 16.597C125.776 19.6476 130.615 18.158 130.615 19.8781C130.615 20.5267 130.08 20.9164 128.795 20.9164C127.797 20.9164 126.758 20.5837 126.108 20.124L125.53 21.2205C126.166 21.7254 127.422 22.1162 128.694 22.1162M122.468 14.3684V18.329C122.468 19.9767 121.543 20.8736 120.094 20.8736C118.78 20.8736 118.028 20.1216 118.028 18.6165V14.366H116.645V18.7745C116.645 21.0316 117.959 22.1138 119.938 22.1138C121.022 22.1138 121.976 21.666 122.538 20.8712V22.0271H123.854V14.366L122.468 14.3684ZM112.688 22.0295H114.075V11.3047H112.688V22.0295ZM106.361 17.7077H103.906V13.1745H106.364C108.214 13.1745 109.181 13.999 109.181 15.4447C109.181 16.8904 108.209 17.7077 106.364 17.7077H106.361ZM106.405 11.9117H102.461V22.0295H103.906V18.9646H106.399C109.027 18.9646 110.617 17.6353 110.617 15.4388C110.617 13.2422 109.032 11.9117 106.404 11.9117H106.405Z" fill="black"/>
</g>
<defs>
<linearGradient id="paint0_linear_611_8364" x1="12.597" y1="15.4552" x2="6.91217" y2="-0.778153" gradientUnits="userSpaceOnUse">
<stop stop-color="#6A00B8"/>
<stop offset="1" stop-color="#DB17B9"/>
</linearGradient>
<linearGradient id="paint1_linear_611_8364" x1="26.4216" y1="-4.01408" x2="-7.0983" y2="28.8701" gradientUnits="userSpaceOnUse">
<stop stop-color="#FF00FF"/>
<stop offset="1" stop-color="#FFFF00"/>
</linearGradient>
<linearGradient id="paint2_linear_611_8364" x1="18.2924" y1="14.3694" x2="27.5028" y2="33.5703" gradientUnits="userSpaceOnUse">
<stop stop-color="#0049E7"/>
<stop offset="1" stop-color="#16EA9E"/>
</linearGradient>
<linearGradient id="paint3_linear_611_8364" x1="4.72068" y1="36.2954" x2="40.1566" y2="6.71818" gradientUnits="userSpaceOnUse">
<stop stop-color="#FF00FF"/>
<stop offset="1" stop-color="#FFFF00"/>
</linearGradient>
<clipPath id="clip0_611_8364">
<rect width="132" height="33" fill="white"/>
</clipPath>
</defs>
</svg>
