<svg width="28" height="20" viewBox="0 0 28 20" fill="none" xmlns="http://www.w3.org/2000/svg">
<path d="M6.82419 7.97595C6.52403 7.97595 6.23599 8.02137 5.9493 8.06279C6.04217 7.75284 6.13773 7.43754 6.29118 7.15431C6.44462 6.74282 6.68421 6.38611 6.92245 6.02672C7.12166 5.63794 7.47296 5.37475 7.73139 5.04208C8.00194 4.71877 8.37074 4.50367 8.66282 4.23514C8.94952 3.95458 9.32505 3.81429 9.62386 3.61657C9.93613 3.43888 10.208 3.24248 10.4988 3.14896L11.2242 2.85237L11.8622 2.58918L11.2094 0L10.4059 0.192384C10.1488 0.256512 9.83518 0.331329 9.47849 0.420841C9.11373 0.487641 8.72473 0.670675 8.29132 0.837675C7.8633 1.02739 7.36797 1.15564 6.90764 1.46025C6.44462 1.7515 5.91026 1.99466 5.43916 2.38477C4.98287 2.78691 4.43236 3.1356 4.02587 3.64729C3.58169 4.12558 3.1429 4.62792 2.80236 5.19973C2.40799 5.74482 2.14013 6.34335 1.85747 6.9352C1.60174 7.52705 1.3958 8.13226 1.22755 8.72011C0.908549 9.89846 0.765874 11.018 0.710688 11.976C0.664924 12.9352 0.691844 13.7328 0.748376 14.31C0.768565 14.5825 0.806253 14.847 0.833173 15.0301L0.866823 15.2545L0.901819 15.2465C1.14122 16.3565 1.69233 17.3765 2.49139 18.1886C3.29045 19.0007 4.30482 19.5717 5.41714 19.8354C6.52947 20.0992 7.6943 20.045 8.7769 19.6791C9.85949 19.3133 10.8156 18.6506 11.5346 17.7679C12.2537 16.8852 12.7062 15.8185 12.84 14.6911C12.9738 13.5638 12.7832 12.4219 12.2904 11.3975C11.7977 10.3731 11.0228 9.50817 10.0555 8.90267C9.08811 8.29717 7.96782 7.97588 6.82419 7.97595ZM21.6301 7.97595C21.33 7.97595 21.0419 8.02137 20.7552 8.06279C20.8481 7.75284 20.9437 7.43754 21.0971 7.15431C21.2506 6.74282 21.4901 6.38611 21.7284 6.02672C21.9276 5.63794 22.2789 5.37475 22.5373 5.04208C22.8079 4.71877 23.1767 4.50367 23.4687 4.23514C23.7554 3.95458 24.131 3.81429 24.4298 3.61657C24.7421 3.43888 25.0139 3.24248 25.3047 3.14896L26.0302 2.85237L26.6682 2.58918L26.0154 0L25.2118 0.192384C24.9547 0.256512 24.6411 0.331329 24.2844 0.420841C23.9197 0.487641 23.5307 0.670675 23.0973 0.837675C22.6706 1.02872 22.1739 1.15564 21.7136 1.46159C21.2505 1.75284 20.7162 1.99599 20.2451 2.38611C19.7888 2.78824 19.2383 3.13694 18.8318 3.64729C18.3876 4.12558 17.9488 4.62792 17.6083 5.19973C17.2139 5.74482 16.9461 6.34335 16.6634 6.9352C16.4077 7.52705 16.2017 8.13226 16.0335 8.72011C15.7145 9.89846 15.5718 11.018 15.5166 11.976C15.4709 12.9352 15.4978 13.7328 15.5543 14.31C15.5745 14.5825 15.6122 14.847 15.6391 15.0301L15.6728 15.2545L15.7077 15.2465C15.9471 16.3565 16.4983 17.3765 17.2973 18.1886C18.0964 19.0007 19.1107 19.5717 20.2231 19.8354C21.3354 20.0992 22.5002 20.045 23.5828 19.6791C24.6654 19.3133 25.6215 18.6506 26.3406 17.7679C27.0596 16.8852 27.5122 15.8185 27.6459 14.6911C27.7797 13.5638 27.5891 12.4219 27.0964 11.3975C26.6036 10.3731 25.8287 9.50817 24.8614 8.90267C23.894 8.29717 22.7738 7.97588 21.6301 7.97595Z" fill="#1379FF"/>
</svg>
