<svg width="15" height="15" viewBox="0 0 15 15" fill="none" xmlns="http://www.w3.org/2000/svg">
<path d="M2.30273 10.5298V12.7382H4.51107L11.0242 6.22505L8.81585 4.01671L2.30273 10.5298ZM12.732 4.51727C12.7865 4.46279 12.8299 4.39808 12.8594 4.32684C12.889 4.2556 12.9042 4.17923 12.9042 4.1021C12.9042 4.02498 12.889 3.94861 12.8594 3.87737C12.8299 3.80613 12.7865 3.74142 12.732 3.68694L11.354 2.30894C11.2995 2.25434 11.2348 2.21103 11.1635 2.18148C11.0923 2.15193 11.0159 2.13672 10.9388 2.13672C10.8617 2.13672 10.7853 2.15193 10.7141 2.18148C10.6428 2.21103 10.5781 2.25434 10.5236 2.30894L9.44596 3.3866L11.6543 5.59494L12.732 4.51727Z" fill="white"/>
</svg>
