<svg version="1.2" xmlns="http://www.w3.org/2000/svg" viewBox="0 0 55 56" width="55" height="56">
	<title>logo</title>
	<defs>
		<clipPath clipPathUnits="userSpaceOnUse" id="cp1">
			<path d="m210.31 0v56h-210.31v-56z"/>
		</clipPath>
		<linearGradient id="g1" x2="1" gradientUnits="userSpaceOnUse" gradientTransform="matrix(30.172,53.565,-55.112,31.043,17.463,-8.249)">
			<stop offset="0" stop-color="#15dcff"/>
			<stop offset="1" stop-color="#1365ff"/>
		</linearGradient>
		<linearGradient id="g2" x2="1" gradientUnits="userSpaceOnUse" gradientTransform="matrix(30.169,53.565,-60.155,33.88,11.765,-5.04)">
			<stop offset="0" stop-color="#15dcff"/>
			<stop offset="1" stop-color="#1365ff"/>
		</linearGradient>
	</defs>
	<style>
		.s0 { fill: #12116e } 
		.s1 { fill: url(#g1) } 
		.s2 { fill: url(#g2) } 
	</style>
	<g id="Clip-Path" clip-path="url(#cp1)">
		<g>
			<path class="s0" d="m210.3 38.9c-0.9 2-2.4 3.6-4.3 4.7-2 1.2-4.3 1.8-6.6 1.7q-5.3 0-8.9-3.4-3.6-3.5-3.6-8.7c0-2.2 0.6-4.3 1.6-6.2 1.1-1.9 2.6-3.4 4.5-4.4 1.9-1.1 4.1-1.7 6.3-1.6 2.2-0.1 4.3 0.5 6.2 1.5 1.8 1 3.2 2.4 4.1 4.2l-4.6 2.5c-0.5-1-1.3-1.7-2.2-2.3-1.1-0.5-2.3-0.8-3.5-0.8q-1.4 0-2.7 0.5-1.3 0.5-2.3 1.5-2 2-2 5.1 0 1.4 0.5 2.7 0.5 1.3 1.5 2.3 1 1 2.3 1.5 1.4 0.6 2.8 0.5c1.3 0 2.6-0.3 3.7-0.9 1-0.6 1.9-1.5 2.4-2.5z"/>
			<g id="Folder 1">
				<path class="s0" d="m64.1 11.3h20v5.4h-14.3v8.7h12.8v5.3h-12.8v14.2h-5.7z"/>
				<path class="s0" d="m88 11.6q0.5-0.5 1.1-0.8 0.7-0.2 1.4-0.2 0.7 0 1.3 0.2 0.6 0.3 1.1 0.8 0.5 0.5 0.8 1.1 0.2 0.6 0.2 1.3 0.1 0.7-0.2 1.3-0.3 0.6-0.8 1.1-0.5 0.5-1.1 0.8-0.6 0.2-1.3 0.2c-0.7 0-1.4-0.2-2-0.6-0.5-0.3-1-0.9-1.2-1.5-0.3-0.6-0.4-1.3-0.2-2 0.1-0.6 0.4-1.2 0.9-1.7zm-0.3 9.9h5.4v23.4h-5.4z"/>
				<path class="s0" d="m107.6 45.4c-1.9 0-3.9-0.3-5.7-0.9q-2.9-1-4.6-2.5l2.1-4c1.1 0.9 2.4 1.6 3.7 2.1 1.4 0.5 2.9 0.8 4.4 0.8q1.7 0 2.8-0.7 1.1-0.8 1.1-1.9 0-0.4-0.1-0.7-0.2-0.4-0.5-0.6-0.6-0.6-1.5-0.8-0.9-0.3-2.1-0.6-1.2-0.4-2.4-0.6-1.3-0.3-2.4-0.8-1.2-0.5-2.2-1.2c-0.6-0.5-1.1-1.2-1.4-1.9-0.4-0.9-0.6-1.8-0.6-2.8 0-1 0.2-2 0.6-2.9 0.5-0.9 1.1-1.7 2-2.4q2.5-2 6.6-2 2.6 0 5 0.7c1.4 0.4 2.8 1.1 3.9 2.1l-2.1 4.1c-1-0.8-2.2-1.4-3.5-1.8q-1.8-0.6-3.8-0.7c-0.9 0-1.7 0.2-2.4 0.7q-0.4 0.3-0.7 0.8-0.2 0.5-0.2 1 0 0.4 0.2 0.8 0.2 0.3 0.5 0.6 0.9 0.6 1.9 0.9 1.2 0.3 2.6 0.7 1.5 0.3 2.9 0.8 1.3 0.5 2.6 1.3c0.8 0.5 1.4 1.2 1.9 2 0.5 1 0.7 2 0.7 3.1q0 3.2-2.6 5.2-2.6 2.1-6.7 2.1z"/>
				<path class="s0" d="m137.9 21.5h5.4v23.4h-5.4v-3.2c-0.8 1.2-1.8 2.1-3.1 2.7-1.3 0.6-2.7 1-4.2 1q-4.5 0-7.1-2.9-2.6-2.8-2.6-7.7v-13.3h5.4v12.5q0 2.8 1.5 4.4 1.6 1.6 4.1 1.6c1.2 0 2.4-0.3 3.4-0.9 1.1-0.5 2-1.4 2.6-2.4z"/>
				<path class="s0" d="m161.6 21q4.5 0 7.1 2.8 2.7 2.9 2.7 7.7v13.4h-5.5v-12.5q0-2.8-1.5-4.5-1.5-1.6-4.1-1.6c-1.2 0-2.4 0.3-3.4 0.9-1.1 0.5-2 1.4-2.6 2.4v15.3h-5.3v-23.4h5.4v3.1c0.7-1.1 1.8-2 3-2.6 1.3-0.7 2.8-1 4.2-1z"/>
				<path class="s0" d="m177.3 11.6q0.5-0.5 1.1-0.8 0.7-0.2 1.4-0.2 0.7 0 1.3 0.2 0.6 0.3 1.1 0.8 0.5 0.5 0.8 1.1 0.3 0.6 0.2 1.3 0.1 0.7-0.2 1.3-0.3 0.6-0.8 1.1-0.5 0.5-1.1 0.8-0.6 0.2-1.3 0.2c-0.7 0-1.4-0.2-2-0.6-0.5-0.3-1-0.9-1.2-1.5-0.3-0.6-0.4-1.3-0.2-2 0.1-0.6 0.4-1.2 0.9-1.7zm-0.3 9.9h5.4v23.4h-5.4z"/>
				<path class="s1" d="m46.3 2.1l-6.6 11.6q-0.2 0.4-0.6 0.6-0.3 0.2-0.7 0.2h-13.2q-0.2 0-0.4 0.1-0.1 0.1-0.2 0.2-0.1 0.2-0.1 0.3 0 0.2 0.1 0.4l7.2 12.7h-15.9q-0.4 0-0.8-0.2-0.3-0.2-0.5-0.5l-7.4-13-7-12.4q-0.2-0.3-0.2-0.7 0-0.4 0.2-0.7 0.2-0.3 0.5-0.5 0.4-0.2 0.8-0.2h43.5q0.4 0 0.7 0.2 0.4 0.2 0.6 0.5 0.2 0.3 0.2 0.7 0 0.4-0.2 0.7z"/>
				<path class="s2" d="m47.4 30.4l-7 12.3-7.1 12.6q-0.2 0.3-0.5 0.5-0.4 0.2-0.8 0.2-0.4 0-0.7-0.2-0.4-0.2-0.5-0.5l-6.8-11.9q-0.2-0.3-0.2-0.7 0-0.4 0.2-0.7l7.8-13.8h14.4q0.4 0 0.7 0.2 0.3 0.2 0.5 0.5 0.2 0.4 0.2 0.7 0 0.4-0.2 0.8z"/>
			</g>
		</g>
	</g>
</svg>