<svg width="19" height="168" viewBox="0 0 19 168" fill="none" xmlns="http://www.w3.org/2000/svg">
<path d="M4.91424 17.168C4.02758 17.168 3.26224 16.958 2.61824 16.538C1.98358 16.1087 1.49358 15.516 1.14824 14.76C0.812244 13.9947 0.644244 13.108 0.644244 12.1C0.644244 11.092 0.812244 10.21 1.14824 9.454C1.49358 8.68867 1.98358 8.096 2.61824 7.676C3.26224 7.24667 4.02758 7.032 4.91424 7.032C5.80091 7.032 6.56158 7.24667 7.19624 7.676C7.83091 8.096 8.31624 8.68867 8.65224 9.454C8.99758 10.21 9.17024 11.092 9.17024 12.1C9.17024 13.108 8.99758 13.9947 8.65224 14.76C8.31624 15.516 7.83091 16.1087 7.19624 16.538C6.56158 16.958 5.80091 17.168 4.91424 17.168ZM4.91424 15.838C5.44624 15.838 5.91758 15.6887 6.32824 15.39C6.74824 15.0913 7.07491 14.662 7.30824 14.102C7.54158 13.542 7.65824 12.8747 7.65824 12.1C7.65824 11.3253 7.54158 10.658 7.30824 10.098C7.07491 9.538 6.74824 9.10867 6.32824 8.81C5.91758 8.51133 5.44624 8.362 4.91424 8.362C4.37291 8.362 3.89691 8.51133 3.48624 8.81C3.07558 9.10867 2.75358 9.538 2.52024 10.098C2.28691 10.658 2.17024 11.3253 2.17024 12.1C2.17024 12.8747 2.28691 13.542 2.52024 14.102C2.75358 14.662 3.07558 15.0913 3.48624 15.39C3.89691 15.6887 4.37291 15.838 4.91424 15.838ZM11.8323 17V8.88L10.2503 9.244V8.152L12.4203 7.2H13.3723V17H11.8323Z" fill="#4A4A4A"/>
<path d="M4.91424 89.168C4.02758 89.168 3.26224 88.958 2.61824 88.538C1.98358 88.1087 1.49358 87.516 1.14824 86.76C0.812244 85.9947 0.644244 85.108 0.644244 84.1C0.644244 83.092 0.812244 82.21 1.14824 81.454C1.49358 80.6887 1.98358 80.096 2.61824 79.676C3.26224 79.2467 4.02758 79.032 4.91424 79.032C5.80091 79.032 6.56158 79.2467 7.19624 79.676C7.83091 80.096 8.31624 80.6887 8.65224 81.454C8.99758 82.21 9.17024 83.092 9.17024 84.1C9.17024 85.108 8.99758 85.9947 8.65224 86.76C8.31624 87.516 7.83091 88.1087 7.19624 88.538C6.56158 88.958 5.80091 89.168 4.91424 89.168ZM4.91424 87.838C5.44624 87.838 5.91758 87.6887 6.32824 87.39C6.74824 87.0913 7.07491 86.662 7.30824 86.102C7.54158 85.542 7.65824 84.8747 7.65824 84.1C7.65824 83.3253 7.54158 82.658 7.30824 82.098C7.07491 81.538 6.74824 81.1087 6.32824 80.81C5.91758 80.5113 5.44624 80.362 4.91424 80.362C4.37291 80.362 3.89691 80.5113 3.48624 80.81C3.07558 81.1087 2.75358 81.538 2.52024 82.098C2.28691 82.658 2.17024 83.3253 2.17024 84.1C2.17024 84.8747 2.28691 85.542 2.52024 86.102C2.75358 86.662 3.07558 87.0913 3.48624 87.39C3.89691 87.6887 4.37291 87.838 4.91424 87.838ZM10.5189 89V87.936C11.1536 87.432 11.7603 86.9233 12.3389 86.41C12.9176 85.8967 13.4309 85.3927 13.8789 84.898C14.3363 84.394 14.6956 83.904 14.9569 83.428C15.2183 82.9427 15.3489 82.476 15.3489 82.028C15.3489 81.7293 15.2976 81.4493 15.1949 81.188C15.0923 80.9173 14.9243 80.7027 14.6909 80.544C14.4576 80.376 14.1449 80.292 13.7529 80.292C13.1649 80.292 12.7216 80.4787 12.4229 80.852C12.1336 81.2253 11.9936 81.6733 12.0029 82.196H10.5609C10.5703 81.5053 10.7149 80.9267 10.9949 80.46C11.2843 79.9933 11.6669 79.6387 12.1429 79.396C12.6283 79.1533 13.1743 79.032 13.7809 79.032C14.7049 79.032 15.4423 79.2933 15.9929 79.816C16.5529 80.3293 16.8329 81.048 16.8329 81.972C16.8329 82.5227 16.6976 83.0687 16.4269 83.61C16.1656 84.1513 15.8203 84.674 15.3909 85.178C14.9709 85.6727 14.5183 86.1393 14.0329 86.578C13.5476 87.0167 13.0856 87.4133 12.6469 87.768H17.1269V89H10.5189Z" fill="#1379FF"/>
<path d="M4.91424 161.168C4.02758 161.168 3.26224 160.958 2.61824 160.538C1.98358 160.109 1.49358 159.516 1.14824 158.76C0.812244 157.995 0.644244 157.108 0.644244 156.1C0.644244 155.092 0.812244 154.21 1.14824 153.454C1.49358 152.689 1.98358 152.096 2.61824 151.676C3.26224 151.247 4.02758 151.032 4.91424 151.032C5.80091 151.032 6.56158 151.247 7.19624 151.676C7.83091 152.096 8.31624 152.689 8.65224 153.454C8.99758 154.21 9.17024 155.092 9.17024 156.1C9.17024 157.108 8.99758 157.995 8.65224 158.76C8.31624 159.516 7.83091 160.109 7.19624 160.538C6.56158 160.958 5.80091 161.168 4.91424 161.168ZM4.91424 159.838C5.44624 159.838 5.91758 159.689 6.32824 159.39C6.74824 159.091 7.07491 158.662 7.30824 158.102C7.54158 157.542 7.65824 156.875 7.65824 156.1C7.65824 155.325 7.54158 154.658 7.30824 154.098C7.07491 153.538 6.74824 153.109 6.32824 152.81C5.91758 152.511 5.44624 152.362 4.91424 152.362C4.37291 152.362 3.89691 152.511 3.48624 152.81C3.07558 153.109 2.75358 153.538 2.52024 154.098C2.28691 154.658 2.17024 155.325 2.17024 156.1C2.17024 156.875 2.28691 157.542 2.52024 158.102C2.75358 158.662 3.07558 159.091 3.48624 159.39C3.89691 159.689 4.37291 159.838 4.91424 159.838ZM13.9603 161.168C13.3257 161.168 12.747 161.056 12.2243 160.832C11.711 160.599 11.3003 160.249 10.9923 159.782C10.6843 159.315 10.521 158.732 10.5023 158.032H11.9723C11.991 158.555 12.1683 158.998 12.5043 159.362C12.8497 159.717 13.335 159.894 13.9603 159.894C14.5577 159.894 15.015 159.731 15.3323 159.404C15.6497 159.068 15.8083 158.653 15.8083 158.158C15.8083 157.561 15.5937 157.117 15.1643 156.828C14.7443 156.539 14.2263 156.394 13.6103 156.394H12.8823V155.162H13.6243C14.175 155.162 14.6183 155.031 14.9543 154.77C15.2997 154.509 15.4723 154.14 15.4723 153.664C15.4723 153.263 15.337 152.936 15.0663 152.684C14.805 152.432 14.4317 152.306 13.9463 152.306C13.4423 152.306 13.0457 152.455 12.7563 152.754C12.467 153.043 12.3083 153.407 12.2803 153.846H10.8103C10.829 153.277 10.969 152.782 11.2303 152.362C11.501 151.942 11.8697 151.615 12.3363 151.382C12.803 151.149 13.3397 151.032 13.9463 151.032C14.5997 151.032 15.1457 151.149 15.5843 151.382C16.0323 151.606 16.3683 151.914 16.5923 152.306C16.8257 152.689 16.9423 153.109 16.9423 153.566C16.9423 154.089 16.7977 154.546 16.5083 154.938C16.219 155.33 15.8317 155.591 15.3463 155.722C15.9063 155.843 16.3683 156.119 16.7323 156.548C17.0963 156.968 17.2783 157.514 17.2783 158.186C17.2783 158.727 17.1523 159.227 16.9003 159.684C16.6483 160.132 16.275 160.491 15.7803 160.762C15.2857 161.033 14.679 161.168 13.9603 161.168Z" fill="#4A4A4A"/>
<path d="M7.00024 30C7.55253 30 8.00024 30.4477 8.00024 31V67C7.44796 67 7.00024 66.5523 7.00024 66V30Z" fill="#767676"/>
<path d="M7.00024 102C7.55253 102 8.00024 102.448 8.00024 103V139C7.44796 139 7.00024 138.552 7.00024 138V102Z" fill="#767676"/>
</svg>
