<svg width="16" height="21" viewBox="0 0 16 21" fill="none" xmlns="http://www.w3.org/2000/svg">
<path d="M8 0.75C9.79472 0.752417 11.5239 1.44291 12.8545 2.68555L13.1152 2.94141C14.3921 4.2582 15.1488 6.01838 15.2402 7.87793L15.25 8.25098C15.2523 9.87908 14.7364 11.4606 13.7852 12.7529L13.7285 12.8281C13.7116 12.8509 13.6936 12.8778 13.6738 12.9043C13.6447 12.9434 13.6149 12.9836 13.5908 13.0156C13.5746 13.0372 13.5643 13.0512 13.5586 13.0586L7.99902 19.8184L2.44434 13.0625L2.44141 13.0586L2.41016 13.0166C2.38622 12.9848 2.35625 12.9454 2.32715 12.9062C2.29837 12.8675 2.27072 12.8298 2.25 12.8018C2.23964 12.7877 2.23054 12.7756 2.22461 12.7676C2.22178 12.7637 2.21932 12.7609 2.21777 12.7588C2.21699 12.7577 2.21621 12.7564 2.21582 12.7559V12.7549H2.21484C1.32279 11.5428 0.814088 10.0763 0.755859 8.55566L0.75 8.25098C0.75214 6.37994 1.4291 4.58524 2.63574 3.21094L2.88477 2.94141C4.24575 1.53798 6.08561 0.752578 8 0.75ZM9.4082 4.78906C8.82071 4.53811 8.18022 4.44853 7.55078 4.52832L7.28223 4.57324C6.65733 4.70143 6.07899 4.99352 5.60254 5.41699L5.4043 5.60645C4.95827 6.06643 4.63908 6.63484 4.47266 7.25391L4.41016 7.52246C4.28812 8.15514 4.32799 8.80837 4.52344 9.41895L4.61621 9.67773C4.89036 10.3602 5.35608 10.9475 5.95801 11.3623C6.56026 11.7773 7.27107 12 8 12H8.00098C8.91728 11.9988 9.79341 11.6457 10.4629 11.0205L10.5947 10.8926C11.2351 10.2322 11.609 9.35543 11.6543 8.43555L11.6592 8.25098V8.25C11.6592 7.60547 11.4973 6.97204 11.1895 6.41113L11.0479 6.17578C10.6487 5.55967 10.0792 5.07578 9.4082 4.78906Z" stroke="#1379FF" stroke-width="1.5"/>
</svg>
