<svg width="211" height="56" viewBox="0 0 211 56" fill="none" xmlns="http://www.w3.org/2000/svg">
<g clip-path="url(#clip0_1307_1985)">
<path d="M64.0693 11.3359H84.1443V16.7158H69.7561V25.3701H82.5716V30.7473H69.7561V44.8753H64.0693V11.3359Z" fill="#12116E"/>
<path d="M88.0134 11.5939C88.33 11.27 88.7107 11.0136 89.132 10.8406C89.5532 10.6676 90.006 10.5817 90.4623 10.5882C90.9182 10.5842 91.3702 10.6713 91.7911 10.8441C92.2119 11.017 92.5929 11.272 92.9111 11.5939C93.2403 11.8999 93.5019 12.2696 93.6794 12.6799C93.8568 13.0901 93.9463 13.5321 93.9423 13.9781C93.9498 14.4317 93.8621 14.882 93.6846 15.3006C93.5072 15.7192 93.2438 16.0971 92.9111 16.4106C92.5929 16.7325 92.2119 16.9875 91.7911 17.1604C91.3702 17.3332 90.9182 17.4203 90.4623 17.4163C89.7767 17.4189 89.1058 17.2205 88.535 16.8462C87.9641 16.472 87.5191 15.9389 87.2566 15.3146C86.9941 14.6904 86.9258 14.0033 87.0606 13.3408C87.1954 12.6782 87.527 12.0702 88.0134 11.5939ZM87.7277 21.4632H93.1152V44.8759H87.7277V21.4632Z" fill="#12116E"/>
<path d="M107.629 45.415C105.676 45.4105 103.738 45.0944 101.888 44.479C99.9885 43.8533 98.4611 43.0264 97.3057 41.9983L99.4416 37.9755C100.5 38.9248 101.75 39.6423 103.109 40.0808C104.502 40.6002 105.975 40.8778 107.463 40.9014C108.633 40.9014 109.582 40.6556 110.312 40.1639C111.041 39.6723 111.404 39.0518 111.4 38.3027C111.403 38.0575 111.354 37.8143 111.257 37.5889C111.159 37.3635 111.014 37.1608 110.831 36.994C110.403 36.6081 109.891 36.3238 109.335 36.1626C108.717 35.9695 108.015 35.7657 107.223 35.5565C106.432 35.3473 105.621 35.1515 104.791 34.9718C103.954 34.7874 103.139 34.5177 102.358 34.1673C101.611 33.841 100.903 33.4335 100.247 32.9524C99.6009 32.4557 99.0872 31.8114 98.7505 31.0751C98.3582 30.2149 98.164 29.2798 98.1818 28.3369C98.1591 27.315 98.3801 26.3021 98.8272 25.3797C99.2743 24.4574 99.9349 23.6515 100.756 23.0268C102.472 21.6555 104.691 20.9698 107.414 20.9698C109.098 20.9641 110.774 21.2082 112.385 21.6939C113.835 22.1037 115.176 22.8234 116.311 23.8019L114.178 27.9266C113.16 27.0918 111.977 26.4744 110.703 26.1136C109.475 25.7052 108.191 25.481 106.894 25.4485C106.043 25.407 105.201 25.6405 104.497 26.1136C104.208 26.3198 103.974 26.593 103.817 26.9092C103.66 27.2254 103.584 27.5748 103.596 27.9266C103.6 28.192 103.668 28.4526 103.796 28.6862C103.924 28.9197 104.108 29.1192 104.331 29.2675C104.908 29.6745 105.552 29.9786 106.236 30.1659C107.019 30.4019 107.885 30.6299 108.834 30.8579C109.802 31.0865 110.754 31.374 111.686 31.7187C112.59 32.0517 113.457 32.475 114.273 32.9819C115.077 33.4965 115.732 34.2057 116.178 35.0416C116.684 35.9887 116.937 37.0474 116.913 38.1177C116.913 40.222 116.043 41.9644 114.303 43.3446C112.564 44.7249 110.339 45.415 107.629 45.415Z" fill="#12116E"/>
<path d="M137.861 21.4629H143.303V44.8756H137.861V41.719C137.125 42.8624 136.076 43.778 134.836 44.3606C133.525 45.0204 132.074 45.3624 130.602 45.3583C127.611 45.3583 125.245 44.4107 123.506 42.5155C121.766 40.6203 120.896 38.044 120.896 34.7864V21.4629H126.281V33.9523C126.281 35.8243 126.795 37.3056 127.824 38.3962C128.852 39.4868 130.221 40.033 131.93 40.0348C133.125 40.0325 134.298 39.7218 135.334 39.1337C136.378 38.5712 137.251 37.7433 137.861 36.7361V21.4629Z" fill="#12116E"/>
<path d="M161.64 20.9719C164.613 20.9719 166.978 21.923 168.736 23.8254C170.494 25.7277 171.372 28.2925 171.37 31.5196V44.8753H165.928V32.3617C165.928 30.4916 165.417 29.0103 164.396 27.9179C163.375 26.8255 162.014 26.2802 160.315 26.282C159.105 26.279 157.916 26.5849 156.862 27.1696C155.816 27.7258 154.943 28.5506 154.334 29.5565V44.8753H148.963V21.4626H154.35V24.6192C155.105 23.4725 156.164 22.5508 157.411 21.9534C158.721 21.2991 160.171 20.9626 161.64 20.9719Z" fill="#12116E"/>
<path d="M177.325 11.5937C177.642 11.2698 178.023 11.0134 178.444 10.8404C178.865 10.6674 179.318 10.5815 179.774 10.588C180.23 10.584 180.682 10.671 181.103 10.8439C181.524 11.0167 181.905 11.2718 182.223 11.5937C182.551 11.9006 182.811 12.2711 182.987 12.6818C183.163 13.0925 183.252 13.5347 183.246 13.9805C183.254 14.4342 183.166 14.8844 182.988 15.303C182.811 15.7216 182.548 16.0995 182.215 16.413C181.897 16.7349 181.516 16.99 181.095 17.1628C180.674 17.3357 180.222 17.4227 179.766 17.4187C179.08 17.4213 178.41 17.2229 177.839 16.8487C177.268 16.4744 176.823 15.9413 176.56 15.3171C176.298 14.6929 176.23 14.0058 176.364 13.3432C176.499 12.6807 176.831 12.0726 177.317 11.5964L177.325 11.5937ZM177.053 21.4629H182.43V44.8756H177.042L177.053 21.4629Z" fill="#12116E"/>
<path d="M210.311 38.9353C209.402 40.8911 207.902 42.5214 206.015 43.6018C204.005 44.7761 201.706 45.3795 199.37 45.345C195.844 45.345 192.89 44.1829 190.508 41.8586C188.126 39.5343 186.935 36.6415 186.935 33.1801C186.91 31.0033 187.467 28.8584 188.549 26.9608C189.596 25.1172 191.141 23.595 193.011 22.5626C194.937 21.4958 197.114 20.9473 199.324 20.9722C201.486 20.9398 203.619 21.4718 205.506 22.5143C207.262 23.4646 208.684 24.9166 209.587 26.6792L205.008 29.2055C204.509 28.2441 203.728 27.4533 202.766 26.9367C201.718 26.3647 200.535 26.0743 199.337 26.0946C198.401 26.0682 197.469 26.2344 196.6 26.5826C195.732 26.9307 194.947 27.4532 194.295 28.1167C192.957 29.4648 192.288 31.1526 192.29 33.1801C192.266 34.1082 192.433 35.0315 192.781 35.8941C193.129 36.7567 193.652 37.5404 194.317 38.1978C194.975 38.8608 195.764 39.3828 196.636 39.7313C197.508 40.0797 198.443 40.247 199.384 40.2226C200.678 40.2466 201.956 39.931 203.087 39.3081C204.135 38.7298 204.979 37.8492 205.506 36.7845L210.311 38.9353Z" fill="#12116E"/>
<path d="M46.2694 2.14304L39.6821 13.7367C39.5556 13.9603 39.371 14.1465 39.1471 14.2761C38.9232 14.4058 38.6683 14.4742 38.4087 14.4743H25.1768C25.059 14.474 24.9433 14.5042 24.841 14.5617C24.7387 14.6192 24.6534 14.7021 24.5937 14.8022C24.534 14.9023 24.5019 15.016 24.5007 15.1321C24.4994 15.2481 24.5289 15.3625 24.5864 15.4639L31.8376 28.2242H15.8631C15.6035 28.2241 15.3485 28.1557 15.1247 28.026C14.9008 27.8964 14.7161 27.7102 14.5897 27.4867L7.2024 14.4743L0.196023 2.13768C0.0710309 1.91837 0.00649884 1.67061 0.00885114 1.41908C0.0112034 1.16754 0.0803588 0.920997 0.209431 0.703992C0.338503 0.486988 0.522992 0.307088 0.744529 0.182204C0.966067 0.0573209 1.21693 -0.00819138 1.47214 -0.00781085H45.0069C45.2618 -0.0063823 45.5118 0.0607225 45.7322 0.186839C45.9526 0.312955 46.1357 0.493698 46.2633 0.711123C46.3909 0.928549 46.4587 1.17509 46.4597 1.42628C46.4608 1.67747 46.3952 1.92457 46.2694 2.14304Z" fill="url(#paint0_linear_1307_1985)"/>
<path d="M47.4472 30.3664L40.4408 42.703L33.3011 55.2702C33.1742 55.4935 32.9892 55.6795 32.7651 55.8089C32.541 55.9383 32.286 56.0065 32.0263 56.0065C31.7666 56.0065 31.5116 55.9383 31.2876 55.8089C31.0635 55.6795 30.8785 55.4935 30.7516 55.2702L24.0118 43.4003C23.8901 43.1851 23.8262 42.9427 23.8262 42.6963C23.8262 42.4499 23.8901 42.2075 24.0118 41.9923L31.8345 28.2236H46.1711C46.4259 28.2235 46.6763 28.2891 46.8975 28.4138C47.1186 28.5386 47.3028 28.7182 47.4318 28.9348C47.5608 29.1514 47.6301 29.3974 47.6328 29.6486C47.6355 29.8997 47.5715 30.1472 47.4472 30.3664Z" fill="url(#paint1_linear_1307_1985)"/>
</g>
<defs>
<linearGradient id="paint0_linear_1307_1985" x1="17.463" y1="-8.24918" x2="47.6346" y2="45.3161" gradientUnits="userSpaceOnUse">
<stop stop-color="#15DCFF"/>
<stop offset="1" stop-color="#1365FF"/>
</linearGradient>
<linearGradient id="paint1_linear_1307_1985" x1="11.765" y1="-5.03952" x2="41.9339" y2="48.5257" gradientUnits="userSpaceOnUse">
<stop stop-color="#15DCFF"/>
<stop offset="1" stop-color="#1365FF"/>
</linearGradient>
<clipPath id="clip0_1307_1985">
<rect width="210.311" height="56" fill="white"/>
</clipPath>
</defs>
</svg>
