<svg width="66" height="66" viewBox="0 0 66 66" fill="none" xmlns="http://www.w3.org/2000/svg">
<g filter="url(#filter0_d_611_11331)">
<circle cx="33" cy="29" r="29" fill="#1379FF"/>
<g clip-path="url(#clip0_611_11331)">
<path d="M48.8894 26.1542C48.8894 20.064 42.9811 15.1094 35.7192 15.1094C28.457 15.1094 22.5488 20.0641 22.5488 26.1542C22.5488 32.2443 28.457 37.199 35.7192 37.199C36.3298 37.199 36.9425 37.1637 37.5449 37.0939C40.342 38.8708 42.4069 39.8434 43.6867 39.9856C43.7312 39.9904 43.776 39.9929 43.8199 39.9929C44.2309 39.9929 44.6114 39.788 44.838 39.4445C45.0912 39.0602 45.1078 38.5727 44.8822 38.1747C44.8717 38.1557 43.884 36.3538 44.169 34.6325C47.1737 32.5298 48.8894 29.4569 48.8894 26.1542ZM32.1424 27.8223C31.0648 27.8223 30.1915 26.9488 30.1915 25.8713C30.1915 24.7939 31.0648 23.9204 32.1424 23.9204C33.2198 23.9204 34.0934 24.7939 34.0934 25.8713C34.0935 26.9488 33.2198 27.8223 32.1424 27.8223ZM39.2962 27.8223C38.2185 27.8223 37.345 26.9488 37.345 25.8713C37.345 24.7939 38.2185 23.9204 39.2962 23.9204C40.3736 23.9204 41.2471 24.7939 41.2471 25.8713C41.2471 26.9488 40.3736 27.8223 39.2962 27.8223Z" fill="white"/>
<path d="M25.332 34.9921C24.0252 33.9101 22.9951 32.6434 22.2707 31.2276C21.5069 29.7349 21.1196 28.147 21.1196 26.5081C21.1196 24.8692 21.5069 23.2813 22.2707 21.7886C22.3292 21.6744 22.3904 21.5615 22.4528 21.4492C19.2271 23.2973 17.1094 26.3817 17.1094 29.8684C17.1094 33.0009 18.7968 35.9053 21.7448 37.859C22.2893 39.9995 21.0258 42.2641 21.0124 42.2873C20.9371 42.42 20.9427 42.5839 21.0267 42.7114C21.1024 42.8262 21.2303 42.8942 21.366 42.8942C21.381 42.8942 21.3959 42.8933 21.4111 42.8917C22.886 42.7279 25.4833 41.2288 27.4509 39.9649C28.1135 40.0548 28.791 40.1003 29.4668 40.1003C32.0517 40.1003 34.4532 39.4393 36.4391 38.3114C35.9954 38.3469 35.5485 38.3659 35.103 38.3659C31.4298 38.3659 27.9597 37.1677 25.332 34.9921Z" fill="white"/>
</g>
</g>
<defs>
<filter id="filter0_d_611_11331" x="0" y="0" width="66" height="66" filterUnits="userSpaceOnUse" color-interpolation-filters="sRGB">
<feFlood flood-opacity="0" result="BackgroundImageFix"/>
<feColorMatrix in="SourceAlpha" type="matrix" values="0 0 0 0 0 0 0 0 0 0 0 0 0 0 0 0 0 0 127 0" result="hardAlpha"/>
<feOffset dy="4"/>
<feGaussianBlur stdDeviation="2"/>
<feComposite in2="hardAlpha" operator="out"/>
<feColorMatrix type="matrix" values="0 0 0 0 0 0 0 0 0 0 0 0 0 0 0 0 0 0 0.25 0"/>
<feBlend mode="normal" in2="BackgroundImageFix" result="effect1_dropShadow_611_11331"/>
<feBlend mode="normal" in="SourceGraphic" in2="effect1_dropShadow_611_11331" result="shape"/>
</filter>
<clipPath id="clip0_611_11331">
<rect width="31.7808" height="31.7808" fill="white" transform="translate(17.1094 13.1094)"/>
</clipPath>
</defs>
</svg>
