<svg width="117" height="17" viewBox="0 0 117 17" fill="none" xmlns="http://www.w3.org/2000/svg">
<path d="M13.8867 8.47176C14.7784 7.79722 14.3014 6.37576 13.1832 6.37576H11.16C10.6487 6.37576 10.197 6.04263 10.046 5.55412L9.44286 3.60325C9.10418 2.50774 7.55352 2.50774 7.21483 3.60325L6.6117 5.55413C6.46068 6.04263 6.00901 6.37576 5.49769 6.37576H3.43949C2.32493 6.37576 1.84561 7.78963 2.73038 8.46743L4.49316 9.81786C4.87975 10.114 5.04157 10.6192 4.899 11.0849L4.25851 13.1767C3.92635 14.2615 5.18193 15.1337 6.08257 14.4437L7.61974 13.2661C8.03815 12.9456 8.61955 12.9456 9.03796 13.2661L10.5616 14.4333C11.4635 15.1243 12.7203 14.2488 12.3847 13.1633L11.7353 11.0628C11.5904 10.594 11.7545 10.0845 12.1459 9.78846L13.8867 8.47176Z" fill="#FFAD33"/>
<path d="M30.5444 8.47176C31.4362 7.79722 30.9591 6.37576 29.8409 6.37576H27.8177C27.3064 6.37576 26.8547 6.04263 26.7037 5.55412L26.1006 3.60325C25.7619 2.50774 24.2112 2.50774 23.8725 3.60325L23.2694 5.55413C23.1184 6.04263 22.6667 6.37576 22.1554 6.37576H20.0972C18.9826 6.37576 18.5033 7.78963 19.3881 8.46743L21.1509 9.81786C21.5375 10.114 21.6993 10.6192 21.5567 11.0849L20.9162 13.1767C20.5841 14.2615 21.8396 15.1337 22.7403 14.4437L24.2775 13.2661C24.6959 12.9456 25.2773 12.9456 25.6957 13.2661L27.2193 14.4333C28.1212 15.1243 29.378 14.2488 29.0424 13.1633L28.393 11.0628C28.2481 10.594 28.4122 10.0845 28.8036 9.78846L30.5444 8.47176Z" fill="#FFAD33"/>
<path d="M47.2021 8.47176C48.0939 7.79722 47.6168 6.37576 46.4987 6.37576H44.4754C43.9641 6.37576 43.5125 6.04263 43.3614 5.55412L42.7583 3.60325C42.4196 2.50774 40.869 2.50774 40.5303 3.60325L39.9271 5.55413C39.7761 6.04263 39.3244 6.37576 38.8131 6.37576H36.7549C35.6404 6.37576 35.161 7.78963 36.0458 8.46743L37.8086 9.81786C38.1952 10.114 38.357 10.6192 38.2144 11.0849L37.5739 13.1767C37.2418 14.2615 38.4974 15.1337 39.398 14.4437L40.9352 13.2661C41.3536 12.9456 41.935 12.9456 42.3534 13.2661L43.877 14.4333C44.7789 15.1243 46.0357 14.2488 45.7001 13.1633L45.0507 11.0628C44.9058 10.594 45.0699 10.0845 45.4613 9.78846L47.2021 8.47176Z" fill="#FFAD33"/>
<path d="M63.8598 8.47176C64.7516 7.79722 64.2745 6.37576 63.1563 6.37576H61.1331C60.6218 6.37576 60.1701 6.04263 60.0191 5.55412L59.416 3.60325C59.0773 2.50774 57.5266 2.50774 57.1879 3.60325L56.5848 5.55413C56.4338 6.04263 55.9821 6.37576 55.4708 6.37576H53.4126C52.298 6.37576 51.8187 7.78963 52.7035 8.46743L54.4663 9.81786C54.8529 10.114 55.0147 10.6192 54.8721 11.0849L54.2316 13.1767C53.8995 14.2615 55.155 15.1337 56.0557 14.4437L57.5929 13.2661C58.0113 12.9456 58.5927 12.9456 59.0111 13.2661L60.5347 14.4333C61.4366 15.1243 62.6934 14.2488 62.3578 13.1633L61.7084 11.0628C61.5635 10.594 61.7276 10.0845 62.119 9.78846L63.8598 8.47176Z" fill="#FFAD33"/>
<path d="M80.5175 8.47176C81.4092 7.79722 80.9322 6.37576 79.814 6.37576H77.7908C77.2795 6.37576 76.8278 6.04263 76.6768 5.55412L76.0737 3.60325C75.735 2.50774 74.1843 2.50774 73.8456 3.60325L73.2425 5.55413C73.0915 6.04263 72.6398 6.37576 72.1285 6.37576H70.0703C68.9557 6.37576 68.4764 7.78963 69.3612 8.46743L71.124 9.81786C71.5105 10.114 71.6724 10.6192 71.5298 11.0849L70.8893 13.1767C70.5572 14.2615 71.8127 15.1337 72.7134 14.4437L74.2505 13.2661C74.6689 12.9456 75.2504 12.9456 75.6688 13.2661L77.1924 14.4333C78.0943 15.1243 79.3511 14.2488 79.0155 13.1633L78.3661 11.0628C78.2212 10.594 78.3853 10.0845 78.7767 9.78846L80.5175 8.47176Z" fill="#FFAD33"/>
<path opacity="0.5" d="M94.868 13.7399C94.42 13.2919 94.02 12.7719 93.668 12.1799C93.324 11.5959 93.048 10.9519 92.84 10.2479C92.64 9.54388 92.54 8.79588 92.54 8.00388C92.54 7.21188 92.64 6.46388 92.84 5.75988C93.048 5.05588 93.324 4.41188 93.668 3.82788C94.02 3.23588 94.42 2.71588 94.868 2.26788H96.404V2.41188C95.684 3.17188 95.112 4.03188 94.688 4.99188C94.264 5.94388 94.052 6.94788 94.052 8.00388C94.052 9.05988 94.264 10.0679 94.688 11.0279C95.112 11.9799 95.684 12.8359 96.404 13.5959V13.7399H94.868ZM100.043 12.1439C99.4594 12.1439 98.9674 12.0319 98.5674 11.8079C98.1674 11.5759 97.8554 11.2759 97.6314 10.9079C97.4074 10.5399 97.2754 10.1439 97.2354 9.71988H98.6634C98.7274 10.0879 98.8794 10.3719 99.1194 10.5719C99.3674 10.7719 99.6794 10.8719 100.055 10.8719C100.591 10.8719 101.023 10.6279 101.351 10.1399C101.679 9.64388 101.855 8.89188 101.879 7.88388C101.687 8.21188 101.395 8.48388 101.003 8.69988C100.619 8.91588 100.195 9.02388 99.7314 9.02388C99.2674 9.02388 98.8314 8.91188 98.4234 8.68788C98.0154 8.46388 97.6834 8.14788 97.4274 7.73988C97.1714 7.33188 97.0434 6.85188 97.0434 6.29988C97.0434 5.79588 97.1674 5.32788 97.4154 4.89588C97.6634 4.46388 98.0074 4.11588 98.4474 3.85188C98.8874 3.58788 99.4034 3.45588 99.9954 3.45588C100.627 3.45588 101.159 3.57188 101.591 3.80388C102.023 4.03588 102.367 4.34788 102.623 4.73988C102.887 5.13188 103.075 5.56788 103.187 6.04788C103.307 6.52788 103.367 7.01988 103.367 7.52388C103.367 8.45988 103.235 9.27588 102.971 9.97188C102.715 10.6599 102.335 11.1959 101.831 11.5799C101.335 11.9559 100.739 12.1439 100.043 12.1439ZM100.091 7.72788C100.387 7.72788 100.655 7.66388 100.895 7.53588C101.135 7.39988 101.323 7.22388 101.459 7.00788C101.595 6.78388 101.663 6.53588 101.663 6.26388C101.663 5.83188 101.511 5.47588 101.207 5.19588C100.911 4.91588 100.535 4.77588 100.079 4.77588C99.6314 4.77588 99.2594 4.91588 98.9634 5.19588C98.6674 5.46788 98.5194 5.81588 98.5194 6.23988C98.5194 6.68788 98.6674 7.04788 98.9634 7.31988C99.2594 7.59188 99.6354 7.72788 100.091 7.72788ZM107.649 12.1439C107.065 12.1439 106.573 12.0319 106.173 11.8079C105.773 11.5759 105.461 11.2759 105.237 10.9079C105.013 10.5399 104.881 10.1439 104.841 9.71988H106.269C106.333 10.0879 106.485 10.3719 106.725 10.5719C106.973 10.7719 107.285 10.8719 107.661 10.8719C108.197 10.8719 108.629 10.6279 108.957 10.1399C109.285 9.64388 109.461 8.89188 109.485 7.88388C109.293 8.21188 109.001 8.48388 108.609 8.69988C108.225 8.91588 107.801 9.02388 107.337 9.02388C106.873 9.02388 106.437 8.91188 106.029 8.68788C105.621 8.46388 105.289 8.14788 105.033 7.73988C104.777 7.33188 104.649 6.85188 104.649 6.29988C104.649 5.79588 104.773 5.32788 105.021 4.89588C105.269 4.46388 105.613 4.11588 106.053 3.85188C106.493 3.58788 107.009 3.45588 107.601 3.45588C108.233 3.45588 108.765 3.57188 109.197 3.80388C109.629 4.03588 109.973 4.34788 110.229 4.73988C110.493 5.13188 110.681 5.56788 110.793 6.04788C110.913 6.52788 110.973 7.01988 110.973 7.52388C110.973 8.45988 110.841 9.27588 110.577 9.97188C110.321 10.6599 109.941 11.1959 109.437 11.5799C108.941 11.9559 108.345 12.1439 107.649 12.1439ZM107.697 7.72788C107.993 7.72788 108.261 7.66388 108.501 7.53588C108.741 7.39988 108.929 7.22388 109.065 7.00788C109.201 6.78388 109.269 6.53588 109.269 6.26388C109.269 5.83188 109.117 5.47588 108.813 5.19588C108.517 4.91588 108.141 4.77588 107.685 4.77588C107.237 4.77588 106.865 4.91588 106.569 5.19588C106.273 5.46788 106.125 5.81588 106.125 6.23988C106.125 6.68788 106.273 7.04788 106.569 7.31988C106.865 7.59188 107.241 7.72788 107.697 7.72788ZM111.462 13.7399V13.5959C112.182 12.8359 112.754 11.9799 113.178 11.0279C113.602 10.0679 113.814 9.05988 113.814 8.00388C113.814 6.94788 113.602 5.94388 113.178 4.99188C112.754 4.03188 112.182 3.17188 111.462 2.41188V2.26788H112.998C113.446 2.71588 113.842 3.23588 114.186 3.82788C114.538 4.41188 114.814 5.05588 115.014 5.75988C115.222 6.46388 115.326 7.21188 115.326 8.00388C115.326 8.79588 115.222 9.54388 115.014 10.2479C114.814 10.9519 114.538 11.5959 114.186 12.1799C113.842 12.7719 113.446 13.2919 112.998 13.7399H111.462Z" fill="black"/>
</svg>
